<svg width="29" height="26" viewBox="0 0 29 26" fill="none" xmlns="http://www.w3.org/2000/svg">
<path fill-rule="evenodd" clip-rule="evenodd" d="M7.78708 5.74955C7.78708 4.22467 8.44342 2.76225 9.61171 1.684C10.78 0.605754 12.3645 0 14.0167 0C15.669 0 17.2535 0.605754 18.4218 1.684C19.5901 2.76225 20.2464 4.22467 20.2464 5.74955C20.2464 7.27442 19.5901 8.73684 18.4218 9.81509C17.2535 10.8933 15.669 11.4991 14.0167 11.4991C12.3645 11.4991 10.78 10.8933 9.61171 9.81509C8.44342 8.73684 7.78708 7.27442 7.78708 5.74955ZM7.78708 14.3739C5.72182 14.3739 3.74114 15.1311 2.28078 16.4789C0.820422 17.8267 0 19.6547 0 21.5608C0 22.7045 0.492253 23.8013 1.36847 24.61C2.24469 25.4186 3.43309 25.873 4.67225 25.873H23.3612C24.6004 25.873 25.7888 25.4186 26.665 24.61C27.5412 23.8013 28.0335 22.7045 28.0335 21.5608C28.0335 19.6547 27.2131 17.8267 25.7527 16.4789C24.2923 15.1311 22.3117 14.3739 20.2464 14.3739H7.78708Z" fill="white"/>
</svg>
