<svg width="34" height="34" viewBox="0 0 34 34" fill="none" xmlns="http://www.w3.org/2000/svg">
<circle cx="16.6785" cy="16.678" r="14.5938" fill="#105DFB"/>
<path fill-rule="evenodd" clip-rule="evenodd" d="M7.16772 22.8908V10.1566H13.0545C14.9454 10.1566 16.4782 11.6895 16.4782 13.5803C16.4782 14.7818 16.1087 15.5261 14.754 16.2897C16.3751 17.0283 16.8253 18.052 16.8253 19.48C16.8253 21.4117 15.1093 22.8908 13.1776 22.8908H7.16772ZM9.65876 12.2645V15.3266H12.5743C12.5743 15.3266 13.9913 15.3266 13.9913 13.7956C13.9913 12.2645 12.5743 12.2645 12.5743 12.2645H9.65876ZM9.65876 20.7341V17.4277H12.786C13.2909 17.4277 14.3496 17.6883 14.3496 19.252C14.3496 20.4117 13.3072 20.7233 12.786 20.7341H9.65876Z" fill="white"/>
<path fill-rule="evenodd" clip-rule="evenodd" d="M22.1514 13.6653C20.3598 13.6653 17.7049 14.952 17.7049 18.3724C17.7049 20.4552 18.845 23.1284 22.2654 23.1284C25.0018 23.1284 26.2614 21.1196 26.5491 20.1152H23.9757C23.8454 20.5713 23.3404 21.0762 22.2654 21.0762C20.7018 21.0762 20.148 19.7406 20.0666 19.0728H26.5491V18.3724C26.5491 14.952 23.9431 13.6653 22.1514 13.6653ZM22.1514 15.6198C20.6921 15.6198 20.1535 16.8251 20.0666 17.4277H23.9757C23.9757 16.8251 23.6108 15.6198 22.1514 15.6198Z" fill="white"/>
<path d="M19.0405 10.8801V12.46H25.1809V10.8801H19.0405Z" fill="white"/>
</svg>
