<svg width="27" height="26" viewBox="0 0 27 26" fill="none" xmlns="http://www.w3.org/2000/svg">
<path d="M4.42857 19.4713C4.42857 16.6897 10.3333 15.1598 13.2857 15.1598C16.2381 15.1598 22.1429 16.6897 22.1429 19.4713V20.8621H4.42857M17.7143 8.34483C17.7143 9.45142 17.2477 10.5127 16.4172 11.2952C15.5867 12.0776 14.4602 12.5172 13.2857 12.5172C12.1112 12.5172 10.9848 12.0776 10.1542 11.2952C9.32372 10.5127 8.85714 9.45142 8.85714 8.34483C8.85714 7.23823 9.32372 6.17696 10.1542 5.39449C10.9848 4.61201 12.1112 4.17241 13.2857 4.17241C14.4602 4.17241 15.5867 4.61201 16.4172 5.39449C17.2477 6.17696 17.7143 7.23823 17.7143 8.34483ZM0 2.78161V22.2529C0 22.9906 0.311053 23.6981 0.864732 24.2198C1.41841 24.7414 2.16936 25.0345 2.95238 25.0345H23.619C24.4021 25.0345 25.153 24.7414 25.7067 24.2198C26.2604 23.6981 26.5714 22.9906 26.5714 22.2529V2.78161C26.5714 2.04388 26.2604 1.33637 25.7067 0.814714C25.153 0.293061 24.4021 0 23.619 0H2.95238C2.16936 0 1.41841 0.293061 0.864732 0.814714C0.311053 1.33637 0 2.04388 0 2.78161Z" fill="white"/>
</svg>
