<svg width="54" height="54" viewBox="0 0 54 54" fill="none" xmlns="http://www.w3.org/2000/svg">
<rect width="54" height="54" rx="8.4375" fill="black"/>
<path d="M12.3595 12.401H20.6576L27.2252 41.0312H19.0845L18.6519 39.1829H14.9944L16.0563 33.0871H17.2361L12.3595 12.401ZM12.6348 41.0312H4.41539L10.9437 15.0359L14.6012 30.3735L12.6348 41.0312ZM36.8635 28.0532V35.84H37.2568C38.5677 35.84 39.5247 35.6041 40.1277 35.1322C40.7569 34.634 41.0715 33.7688 41.0715 32.5365C41.0715 31.4092 40.77 30.5309 40.167 29.9016C41.373 29.6394 42.4742 29.2986 43.4705 28.8791C44.4668 28.4596 45.3058 27.909 45.9875 27.2274C47.0886 27.8828 47.8752 28.7218 48.3471 29.7443C48.819 30.7406 49.055 31.9729 49.055 33.4411C49.055 35.8794 48.1636 37.754 46.3807 39.0649C44.5979 40.3758 41.8843 41.0312 38.24 41.0312H29.1947V20.0698H36.8635V24.3565H37.2175C38.3973 24.3565 39.2494 24.1336 39.7737 23.6879C40.3243 23.216 40.5996 22.4032 40.5996 21.2496C40.5996 20.0698 40.3243 19.257 39.7737 18.8113C39.2494 18.3394 38.3973 18.1034 37.2175 18.1034H29.1947L27.0317 12.7156H38.8299C42.0023 12.7156 44.3095 13.371 45.7515 14.6819C47.1935 15.9928 47.9145 17.8281 47.9145 20.1878C47.9145 21.6822 47.5737 22.9407 46.892 23.9632C46.2365 24.9595 45.3582 25.7591 44.257 26.3622C43.1559 26.9652 41.963 27.3978 40.6783 27.66C39.3936 27.9221 38.122 28.0532 36.8635 28.0532Z" fill="url(#paint0_linear_150_20)"/>
<defs>
<linearGradient id="paint0_linear_150_20" x1="50.2188" y1="27.0313" x2="4.21875" y2="27.0313" gradientUnits="userSpaceOnUse">
<stop stop-color="white"/>
<stop offset="1" stop-color="#2EE6D6"/>
</linearGradient>
</defs>
</svg>
