<svg width="36" height="34" viewBox="0 0 36 34" fill="none" xmlns="http://www.w3.org/2000/svg">
<g filter="url(#filter0_d_121_106)">
<path d="M26.4542 6.396L17.9066 13.0667L9.16357 6.396V6.3978L9.17414 6.40681V15.7476L17.808 22.5625L26.4542 16.0108V6.396Z" fill="#EA4335"/>
<path d="M28.6986 4.77282L26.4539 6.39542V16.0102L33.5173 10.5871V7.3203C33.5173 7.3203 32.6599 2.65443 28.6986 4.77282Z" fill="#FBBC05"/>
<path d="M26.4539 16.011V28.4815H31.8676C31.8676 28.4815 33.4081 28.3229 33.5191 26.5669V10.5879L26.4539 16.011Z" fill="#34A853"/>
<path d="M9.17454 28.4919V15.7473L9.16357 15.7383L9.17454 28.4919Z" fill="#C5221F"/>
<path d="M9.16323 6.39731L6.93082 4.78373C2.96951 2.66534 2.11035 7.3294 2.11035 7.3294V10.5962L9.16323 15.7381V6.39731Z" fill="#C5221F"/>
<path d="M9.16357 6.39746V15.7382L9.17454 15.7472V6.40648L9.16357 6.39746Z" fill="#C5221F"/>
<path d="M2.11035 10.5981V26.5771C2.21951 28.3349 3.76178 28.4918 3.76178 28.4918H9.17556L9.16323 15.7382L2.11035 10.5981Z" fill="#4285F4"/>
</g>
<defs>
<filter id="filter0_d_121_106" x="-1.17932" y="-1.05523" width="37.9885" height="37.9885" filterUnits="userSpaceOnUse" color-interpolation-filters="sRGB">
<feFlood flood-opacity="0" result="BackgroundImageFix"/>
<feColorMatrix in="SourceAlpha" type="matrix" values="0 0 0 0 0 0 0 0 0 0 0 0 0 0 0 0 0 0 127 0" result="hardAlpha"/>
<feOffset dy="1.05523"/>
<feGaussianBlur stdDeviation="1.05523"/>
<feComposite in2="hardAlpha" operator="out"/>
<feColorMatrix type="matrix" values="0 0 0 0 0.0627451 0 0 0 0 0.0941176 0 0 0 0 0.156863 0 0 0 0.05 0"/>
<feBlend mode="normal" in2="BackgroundImageFix" result="effect1_dropShadow_121_106"/>
<feBlend mode="normal" in="SourceGraphic" in2="effect1_dropShadow_121_106" result="shape"/>
</filter>
</defs>
</svg>
