<svg width="119" height="43" viewBox="0 0 119 43" fill="none" xmlns="http://www.w3.org/2000/svg">
<path d="M0 2.25146H14.64C16.0686 2.25146 17.5314 2.52575 19.04 3.06289C20.5371 3.60004 21.8286 4.44575 22.9143 5.57718C24 6.70861 24.6171 8.10289 24.7886 9.76004C24.7886 11.9657 24.16 13.7486 22.8914 15.12C21.6343 16.4915 19.9771 17.44 17.9429 17.9772L25.0629 29.7143H15.8171L8.61714 15.7257C8.73143 15.7257 8.91429 15.7372 9.15429 15.7486C9.39429 15.76 9.57714 15.7715 9.70286 15.7715C11.4514 15.7715 12.8229 15.5657 13.7943 15.1658C14.7771 14.7658 15.4514 14.1715 15.8286 13.3943C16.2057 12.6172 16.4 11.6 16.4 10.3543C16.4 9.01718 15.92 7.88575 14.96 6.96004C14 6.03432 12.7429 5.56575 11.1771 5.56575H8.12571V29.7143H0V2.25146Z" fill="#FF7A30"/>
<path d="M30.6747 7.0285C29.7605 7.0285 28.9719 6.71993 28.309 6.10278C27.6462 5.48564 27.3262 4.75421 27.3262 3.89707C27.3262 3.03992 27.6576 2.28564 28.309 1.65707C28.9719 1.0285 29.749 0.708496 30.6747 0.708496C31.6005 0.708496 32.3662 1.01707 33.0176 1.64564C33.6576 2.27421 33.9776 3.01707 33.9776 3.88564C33.9776 4.74278 33.6576 5.48564 33.0176 6.09135C32.3776 6.71992 31.6005 7.0285 30.6747 7.0285ZM27.4176 11.3142H33.8976V29.7142H27.4176V11.3142Z" fill="#FF7A30"/>
<path d="M38.6855 11.3142H48.7884C50.0341 11.3142 51.1313 11.5428 52.1027 11.9885C53.0741 12.4342 53.8284 13.0514 54.3884 13.8514C54.9484 14.6399 55.2684 15.5085 55.3484 16.4571C55.3484 19.3028 54.1255 21.0285 51.6798 21.6342L57.2684 29.7142H50.0684L45.5655 20.6856C46.6398 20.6856 47.4627 20.3885 48.0227 19.7828C48.5827 19.1771 48.8684 18.3542 48.8684 17.2914C48.8684 16.3771 48.6284 15.5771 48.137 14.8685C47.6455 14.1599 46.8798 13.8171 45.8284 13.8171H45.1198V29.7142H38.6855V11.3142Z" fill="#FF7A30"/>
<path d="M58.6523 29.7143L63.7838 14.5029C64.2181 13.2457 64.7552 12.3772 65.3838 11.8857C66.0123 11.3943 66.8466 11.1543 67.8981 11.1543C68.7895 11.1543 69.5209 11.3714 70.0923 11.7943C70.6752 12.2172 71.1895 13.0972 71.6466 14.4114L76.9609 29.7143H70.4809L69.3723 26.32H62.8466L61.5895 29.7143H58.6523ZM68.5609 23.7372L66.2409 16.3314H66.1495L63.6923 23.7372H68.5609Z" fill="#FF7A30"/>
<path d="M79.2793 0H85.7593V11.3143H87.9536C90.0793 11.3143 91.9536 11.6457 93.565 12.3086C95.1879 12.9714 96.4679 14.08 97.4164 15.6229C98.365 17.1657 98.845 19.1657 98.845 21.6229C98.7993 23.3257 98.365 24.7886 97.5536 26.0114C96.7422 27.2343 95.6564 28.16 94.285 28.7886C92.9136 29.4057 91.3822 29.7257 89.6907 29.7257H79.2793V0ZM85.7593 13.8171V27.1314H86.8679C88.5593 27.1314 89.8279 26.6171 90.6736 25.6C91.5307 24.5714 91.9536 22.7429 91.9536 20.1029C91.9193 18.6286 91.6679 17.4171 91.1993 16.48C90.7193 15.5429 90.1136 14.8686 89.3821 14.4571C88.6393 14.0457 87.8736 13.84 87.0507 13.84H85.7593V13.8171Z" fill="#FF7A30"/>
<path d="M101.486 0H107.966V17.7143H112.423V11.3143H118.858V29.7143H112.423V20.4343H107.966V29.7143H101.486V0Z" fill="#FF7A30"/>
<path d="M3.58154 34.3794C3.27393 34.3794 2.99854 34.4351 2.75537 34.5464C2.51514 34.6577 2.31152 34.8188 2.14453 35.0298C1.97754 35.2378 1.8501 35.4912 1.76221 35.79C1.67432 36.0859 1.63037 36.4199 1.63037 36.792C1.63037 37.29 1.70068 37.7192 1.84131 38.0796C1.98193 38.437 2.1958 38.7124 2.48291 38.9058C2.77002 39.0962 3.1333 39.1914 3.57275 39.1914C3.84521 39.1914 4.11035 39.165 4.36816 39.1123C4.62598 39.0596 4.89258 38.9878 5.16797 38.897V39.7935C4.90723 39.896 4.64355 39.9707 4.37695 40.0176C4.11035 40.0645 3.80273 40.0879 3.4541 40.0879C2.79785 40.0879 2.25293 39.9517 1.81934 39.6792C1.38867 39.4067 1.06641 39.0229 0.852539 38.5278C0.641602 38.0327 0.536133 37.4526 0.536133 36.7876C0.536133 36.3013 0.603516 35.856 0.738281 35.4517C0.873047 35.0474 1.06934 34.6987 1.32715 34.4058C1.58496 34.1099 1.90283 33.8828 2.28076 33.7246C2.66162 33.5635 3.09668 33.4829 3.58594 33.4829C3.9082 33.4829 4.22461 33.5195 4.53516 33.5928C4.84863 33.6631 5.13867 33.7642 5.40527 33.896L5.03613 34.7661C4.81348 34.6606 4.58057 34.5698 4.3374 34.4937C4.09424 34.4175 3.84229 34.3794 3.58154 34.3794ZM12.252 36.7788C12.252 37.2739 12.189 37.7251 12.063 38.1323C11.9399 38.5366 11.7539 38.8853 11.5049 39.1782C11.2559 39.4683 10.9438 39.6924 10.5688 39.8506C10.1938 40.0088 9.75439 40.0879 9.25049 40.0879C8.73779 40.0879 8.29248 40.0088 7.91455 39.8506C7.53955 39.6924 7.22754 39.4668 6.97852 39.1738C6.73242 38.8809 6.54785 38.5308 6.4248 38.1235C6.30176 37.7163 6.24023 37.2651 6.24023 36.77C6.24023 36.1079 6.34863 35.5308 6.56543 35.0386C6.78516 34.5435 7.11768 34.1597 7.56299 33.8872C8.01123 33.6118 8.57666 33.4741 9.25928 33.4741C9.92725 33.4741 10.4824 33.6104 10.9248 33.8828C11.3672 34.1553 11.6982 34.5391 11.918 35.0342C12.1406 35.5264 12.252 36.1079 12.252 36.7788ZM7.34766 36.7788C7.34766 37.2739 7.41504 37.7031 7.5498 38.0664C7.68457 38.4268 7.89111 38.7051 8.16943 38.9014C8.45068 39.0947 8.81104 39.1914 9.25049 39.1914C9.69287 39.1914 10.0532 39.0947 10.3315 38.9014C10.6099 38.7051 10.8149 38.4268 10.9468 38.0664C11.0786 37.7031 11.1445 37.2739 11.1445 36.7788C11.1445 36.0259 10.9937 35.437 10.6919 35.0122C10.3931 34.5845 9.91553 34.3706 9.25928 34.3706C8.81982 34.3706 8.45801 34.4673 8.17383 34.6606C7.89258 34.854 7.68457 35.1309 7.5498 35.4912C7.41504 35.8486 7.34766 36.2778 7.34766 36.7788ZM18.9932 40H17.6968L14.5503 34.8716H14.5107C14.5225 35.0444 14.5327 35.2275 14.5415 35.4209C14.5532 35.6143 14.562 35.8135 14.5679 36.0186C14.5767 36.2236 14.584 36.4316 14.5898 36.6426V40H13.6318V33.5752H14.9194L18.0615 38.6685H18.0923C18.0864 38.519 18.0791 38.3477 18.0703 38.1543C18.0615 37.9609 18.0527 37.7617 18.0439 37.5566C18.0381 37.3486 18.0337 37.1479 18.0308 36.9546V33.5752H18.9932V40ZM24.3896 38.251C24.3896 38.6318 24.2959 38.96 24.1084 39.2354C23.9238 39.5107 23.6572 39.7217 23.3086 39.8682C22.9629 40.0146 22.5498 40.0879 22.0693 40.0879C21.835 40.0879 21.6108 40.0747 21.397 40.0483C21.1831 40.022 20.981 39.9839 20.7905 39.9341C20.603 39.8813 20.4316 39.8184 20.2764 39.7451V38.752C20.5371 38.8662 20.8286 38.9702 21.1509 39.064C21.4731 39.1548 21.8013 39.2002 22.1353 39.2002C22.4077 39.2002 22.6333 39.165 22.812 39.0947C22.9937 39.0215 23.1284 38.9189 23.2163 38.7871C23.3042 38.6523 23.3481 38.4956 23.3481 38.3169C23.3481 38.1265 23.2969 37.9653 23.1943 37.8335C23.0918 37.7017 22.9365 37.5815 22.7285 37.4731C22.5234 37.3618 22.2656 37.2432 21.9551 37.1172C21.7441 37.0322 21.542 36.9355 21.3486 36.8271C21.1582 36.7188 20.9883 36.5913 20.8389 36.4448C20.6895 36.2983 20.5708 36.1255 20.4829 35.9263C20.3979 35.7241 20.3555 35.4868 20.3555 35.2144C20.3555 34.8511 20.4419 34.5405 20.6147 34.2827C20.7905 34.0249 21.0366 33.8271 21.353 33.6895C21.6724 33.5518 22.0444 33.4829 22.4692 33.4829C22.8062 33.4829 23.1226 33.5181 23.4185 33.5884C23.7173 33.6587 24.0103 33.7583 24.2974 33.8872L23.9634 34.7354C23.6997 34.627 23.4434 34.5405 23.1943 34.4761C22.9482 34.4116 22.6963 34.3794 22.4385 34.3794C22.2158 34.3794 22.0269 34.4131 21.8716 34.4805C21.7163 34.5479 21.5977 34.6431 21.5156 34.7661C21.4365 34.8862 21.397 35.0298 21.397 35.1968C21.397 35.3843 21.4424 35.5425 21.5332 35.6714C21.627 35.7974 21.7705 35.9131 21.9639 36.0186C22.1602 36.124 22.4121 36.2412 22.7197 36.3701C23.0742 36.5166 23.3745 36.6704 23.6206 36.8315C23.8696 36.9927 24.0601 37.186 24.1919 37.4116C24.3237 37.6343 24.3896 37.9141 24.3896 38.251ZM30.6738 33.5752V37.7324C30.6738 38.1807 30.5786 38.582 30.3882 38.9365C30.2007 39.291 29.9165 39.5723 29.5356 39.7803C29.1548 39.9854 28.6758 40.0879 28.0986 40.0879C27.2754 40.0879 26.6484 39.8726 26.2178 39.4419C25.79 39.0083 25.5762 38.4326 25.5762 37.7148V33.5752H26.6309V37.6226C26.6309 38.1587 26.7568 38.5542 27.0088 38.8091C27.2607 39.064 27.6372 39.1914 28.1382 39.1914C28.4839 39.1914 28.7651 39.1313 28.9819 39.0112C29.2017 38.8882 29.3628 38.7095 29.4653 38.4751C29.5708 38.2378 29.6235 37.9521 29.6235 37.6182V33.5752H30.6738ZM32.3174 40V33.5752H33.3721V39.1035H36.1011V40H32.3174ZM39.4409 40H38.3818V34.4717H36.501V33.5752H41.3174V34.4717H39.4409V40ZM42.3018 40V33.5752H43.3564V40H42.3018ZM50.4141 40H49.1177L45.9712 34.8716H45.9316C45.9434 35.0444 45.9536 35.2275 45.9624 35.4209C45.9741 35.6143 45.9829 35.8135 45.9888 36.0186C45.9976 36.2236 46.0049 36.4316 46.0107 36.6426V40H45.0527V33.5752H46.3403L49.4824 38.6685H49.5132C49.5073 38.519 49.5 38.3477 49.4912 38.1543C49.4824 37.9609 49.4736 37.7617 49.4648 37.5566C49.459 37.3486 49.4546 37.1479 49.4517 36.9546V33.5752H50.4141V40ZM54.6943 36.5107H57.0938V39.7363C56.7568 39.8477 56.4082 39.9341 56.0479 39.9956C55.6875 40.0571 55.2832 40.0879 54.835 40.0879C54.1816 40.0879 53.6279 39.959 53.1738 39.7012C52.7227 39.4404 52.3799 39.064 52.1455 38.5718C51.9111 38.0767 51.7939 37.4805 51.7939 36.7832C51.7939 36.1123 51.9243 35.5308 52.1851 35.0386C52.4458 34.5435 52.8252 34.1611 53.3232 33.8916C53.8213 33.6191 54.4248 33.4829 55.1338 33.4829C55.4824 33.4829 55.8193 33.5181 56.1445 33.5884C56.4727 33.6558 56.7729 33.7495 57.0454 33.8696L56.6763 34.7397C56.4595 34.6372 56.2163 34.5508 55.9468 34.4805C55.6772 34.4102 55.3975 34.375 55.1074 34.375C54.6475 34.375 54.2505 34.4746 53.9165 34.6738C53.5854 34.873 53.3306 35.1543 53.1519 35.5176C52.9731 35.8779 52.8838 36.3042 52.8838 36.7964C52.8838 37.2739 52.9556 37.6929 53.0991 38.0532C53.2427 38.4136 53.4668 38.6948 53.7715 38.897C54.0791 39.0962 54.4761 39.1958 54.9624 39.1958C55.2056 39.1958 55.4121 39.1826 55.582 39.1562C55.752 39.1299 55.9087 39.1006 56.0522 39.0684V37.4116H54.6943V36.5107ZM64.6787 38.251C64.6787 38.6318 64.585 38.96 64.3975 39.2354C64.2129 39.5107 63.9463 39.7217 63.5977 39.8682C63.252 40.0146 62.8389 40.0879 62.3584 40.0879C62.124 40.0879 61.8999 40.0747 61.686 40.0483C61.4722 40.022 61.27 39.9839 61.0796 39.9341C60.8921 39.8813 60.7207 39.8184 60.5654 39.7451V38.752C60.8262 38.8662 61.1177 38.9702 61.4399 39.064C61.7622 39.1548 62.0903 39.2002 62.4243 39.2002C62.6968 39.2002 62.9224 39.165 63.1011 39.0947C63.2827 39.0215 63.4175 38.9189 63.5054 38.7871C63.5933 38.6523 63.6372 38.4956 63.6372 38.3169C63.6372 38.1265 63.5859 37.9653 63.4834 37.8335C63.3809 37.7017 63.2256 37.5815 63.0176 37.4731C62.8125 37.3618 62.5547 37.2432 62.2441 37.1172C62.0332 37.0322 61.8311 36.9355 61.6377 36.8271C61.4473 36.7188 61.2773 36.5913 61.1279 36.4448C60.9785 36.2983 60.8599 36.1255 60.772 35.9263C60.687 35.7241 60.6445 35.4868 60.6445 35.2144C60.6445 34.8511 60.731 34.5405 60.9038 34.2827C61.0796 34.0249 61.3257 33.8271 61.6421 33.6895C61.9614 33.5518 62.3335 33.4829 62.7583 33.4829C63.0952 33.4829 63.4116 33.5181 63.7075 33.5884C64.0063 33.6587 64.2993 33.7583 64.5864 33.8872L64.2524 34.7354C63.9888 34.627 63.7324 34.5405 63.4834 34.4761C63.2373 34.4116 62.9854 34.3794 62.7275 34.3794C62.5049 34.3794 62.3159 34.4131 62.1606 34.4805C62.0054 34.5479 61.8867 34.6431 61.8047 34.7661C61.7256 34.8862 61.686 35.0298 61.686 35.1968C61.686 35.3843 61.7314 35.5425 61.8223 35.6714C61.916 35.7974 62.0596 35.9131 62.2529 36.0186C62.4492 36.124 62.7012 36.2412 63.0088 36.3701C63.3633 36.5166 63.6636 36.6704 63.9097 36.8315C64.1587 36.9927 64.3491 37.186 64.481 37.4116C64.6128 37.6343 64.6787 37.9141 64.6787 38.251ZM69.5566 40H65.918V33.5752H69.5566V34.4629H66.9727V36.2075H69.394V37.0908H66.9727V39.1079H69.5566V40ZM72.7515 33.5752C73.3052 33.5752 73.7622 33.6426 74.1226 33.7773C74.4858 33.9121 74.7554 34.1172 74.9312 34.3926C75.1099 34.668 75.1992 35.0181 75.1992 35.4429C75.1992 35.7593 75.1406 36.0288 75.0234 36.2515C74.9062 36.4741 74.7524 36.6587 74.562 36.8052C74.3716 36.9517 74.168 37.0688 73.9512 37.1567L75.7749 40H74.584L73.0327 37.4248H72V40H70.9453V33.5752H72.7515ZM72.6812 34.4541H72V36.5547H72.7295C73.2188 36.5547 73.5732 36.4639 73.793 36.2822C74.0156 36.1006 74.127 35.8325 74.127 35.478C74.127 35.106 74.0083 34.8423 73.771 34.687C73.5366 34.5317 73.1733 34.4541 72.6812 34.4541ZM81.457 33.5752L79.2114 40H78.0952L75.8496 33.5752H76.9307L78.2842 37.6006C78.3252 37.7178 78.3691 37.8599 78.416 38.0269C78.4658 38.1938 78.5112 38.3623 78.5522 38.5322C78.5962 38.7021 78.6299 38.853 78.6533 38.9849C78.6768 38.853 78.709 38.7021 78.75 38.5322C78.7939 38.3623 78.8394 38.1938 78.8862 38.0269C78.9331 37.8599 78.9771 37.7163 79.0181 37.5962L80.376 33.5752H81.457ZM82.3008 40V33.5752H83.3555V40H82.3008ZM87.7896 34.3794C87.4819 34.3794 87.2065 34.4351 86.9634 34.5464C86.7231 34.6577 86.5195 34.8188 86.3525 35.0298C86.1855 35.2378 86.0581 35.4912 85.9702 35.79C85.8823 36.0859 85.8384 36.4199 85.8384 36.792C85.8384 37.29 85.9087 37.7192 86.0493 38.0796C86.1899 38.437 86.4038 38.7124 86.6909 38.9058C86.978 39.0962 87.3413 39.1914 87.7808 39.1914C88.0532 39.1914 88.3184 39.165 88.5762 39.1123C88.834 39.0596 89.1006 38.9878 89.376 38.897V39.7935C89.1152 39.896 88.8516 39.9707 88.585 40.0176C88.3184 40.0645 88.0107 40.0879 87.6621 40.0879C87.0059 40.0879 86.4609 39.9517 86.0273 39.6792C85.5967 39.4067 85.2744 39.0229 85.0605 38.5278C84.8496 38.0327 84.7441 37.4526 84.7441 36.7876C84.7441 36.3013 84.8115 35.856 84.9463 35.4517C85.0811 35.0474 85.2773 34.6987 85.5352 34.4058C85.793 34.1099 86.1108 33.8828 86.4888 33.7246C86.8696 33.5635 87.3047 33.4829 87.7939 33.4829C88.1162 33.4829 88.4326 33.5195 88.7432 33.5928C89.0566 33.6631 89.3467 33.7642 89.6133 33.896L89.2441 34.7661C89.0215 34.6606 88.7886 34.5698 88.5454 34.4937C88.3022 34.4175 88.0503 34.3794 87.7896 34.3794ZM94.3945 40H90.7559V33.5752H94.3945V34.4629H91.8105V36.2075H94.2319V37.0908H91.8105V39.1079H94.3945V40ZM99.4922 38.251C99.4922 38.6318 99.3984 38.96 99.2109 39.2354C99.0264 39.5107 98.7598 39.7217 98.4111 39.8682C98.0654 40.0146 97.6523 40.0879 97.1719 40.0879C96.9375 40.0879 96.7134 40.0747 96.4995 40.0483C96.2856 40.022 96.0835 39.9839 95.8931 39.9341C95.7056 39.8813 95.5342 39.8184 95.3789 39.7451V38.752C95.6396 38.8662 95.9312 38.9702 96.2534 39.064C96.5757 39.1548 96.9038 39.2002 97.2378 39.2002C97.5103 39.2002 97.7358 39.165 97.9146 39.0947C98.0962 39.0215 98.231 38.9189 98.3188 38.7871C98.4067 38.6523 98.4507 38.4956 98.4507 38.3169C98.4507 38.1265 98.3994 37.9653 98.2969 37.8335C98.1943 37.7017 98.0391 37.5815 97.8311 37.4731C97.626 37.3618 97.3682 37.2432 97.0576 37.1172C96.8467 37.0322 96.6445 36.9355 96.4512 36.8271C96.2607 36.7188 96.0908 36.5913 95.9414 36.4448C95.792 36.2983 95.6733 36.1255 95.5854 35.9263C95.5005 35.7241 95.458 35.4868 95.458 35.2144C95.458 34.8511 95.5444 34.5405 95.7173 34.2827C95.8931 34.0249 96.1392 33.8271 96.4556 33.6895C96.7749 33.5518 97.147 33.4829 97.5718 33.4829C97.9087 33.4829 98.2251 33.5181 98.521 33.5884C98.8198 33.6587 99.1128 33.7583 99.3999 33.8872L99.0659 34.7354C98.8022 34.627 98.5459 34.5405 98.2969 34.4761C98.0508 34.4116 97.7988 34.3794 97.541 34.3794C97.3184 34.3794 97.1294 34.4131 96.9741 34.4805C96.8188 34.5479 96.7002 34.6431 96.6182 34.7661C96.5391 34.8862 96.4995 35.0298 96.4995 35.1968C96.4995 35.3843 96.5449 35.5425 96.6357 35.6714C96.7295 35.7974 96.873 35.9131 97.0664 36.0186C97.2627 36.124 97.5146 36.2412 97.8223 36.3701C98.1768 36.5166 98.4771 36.6704 98.7231 36.8315C98.9722 36.9927 99.1626 37.186 99.2944 37.4116C99.4263 37.6343 99.4922 37.9141 99.4922 38.251ZM103.069 40V33.5752H104.124V39.1035H106.853V40H103.069ZM107.965 40V33.5752H109.02V39.1035H111.749V40H107.965ZM114.728 33.5752C115.557 33.5752 116.162 33.7451 116.543 34.085C116.924 34.4248 117.114 34.9009 117.114 35.5132C117.114 35.7915 117.07 36.0566 116.982 36.3086C116.897 36.5576 116.757 36.7788 116.561 36.9722C116.364 37.1626 116.105 37.3135 115.783 37.4248C115.463 37.5361 115.069 37.5918 114.601 37.5918H113.915V40H112.86V33.5752H114.728ZM114.658 34.4497H113.915V36.7129H114.491C114.822 36.7129 115.103 36.6748 115.334 36.5986C115.566 36.5195 115.742 36.395 115.862 36.2251C115.982 36.0552 116.042 35.8311 116.042 35.5527C116.042 35.1807 115.929 34.9038 115.704 34.7222C115.481 34.5405 115.132 34.4497 114.658 34.4497Z" fill="#FF7A30"/>
</svg>
