<svg width="32" height="32" viewBox="0 0 32 32" fill="none" xmlns="http://www.w3.org/2000/svg">
<path d="M22.5902 9.68066H9.6792V22.5904H22.5889L22.5902 9.68066Z" fill="white"/>
<path d="M27.7541 7.09821V4.51705H25.173V1.93588H22.5905V4.51705H20.0094V1.93588H17.4269V4.51705H14.8457V1.93588H12.262V4.51705H9.68082V1.93588H7.09837V4.51705H4.5172V7.09821H1.93604V9.68067H4.5172V12.2618H1.93604V14.8443H4.5172V17.4255H1.93604V20.0079H4.5172V22.5891H1.93604V25.1715H4.5172V27.7527H7.09837V30.3352H9.68082V27.754H12.262V30.3352H14.8444V27.754H17.4256V30.3352H20.0081V27.754H22.5892V30.3352H25.1717V27.754H27.7529V25.1728H30.3353V22.5904H27.7541V20.0092H30.3353V17.4267H27.7541V14.8456H30.3353V12.2618H27.7541V9.68067H30.3353V7.09821H27.7541ZM25.173 25.1715H7.09837V7.0995H25.1704L25.173 25.1715Z" fill="white"/>
</svg>
