<?xml version="1.0" encoding="UTF-8"?>
<svg version="1.1" xmlns="http://www.w3.org/2000/svg" width="638" height="626">
<path d="M0 0 C210.54 0 421.08 0 638 0 C638 206.58 638 413.16 638 626 C427.46 626 216.92 626 0 626 C0 419.42 0 212.84 0 0 Z " fill="#2EABF0" transform="translate(0,0)"/>
<path d="M0 0 C210.54 0 421.08 0 638 0 C638 206.58 638 413.16 638 626 C427.46 626 216.92 626 0 626 C0 419.42 0 212.84 0 0 Z M111.35498047 7.90515137 C110.31274323 8.86529396 110.31274323 8.86529396 109.24945068 9.84483337 C105.07158383 13.84758803 100.92819333 17.88040461 96.8203125 21.95507812 C95.82422158 22.93996632 94.82797587 23.92469797 93.83158875 24.9092865 C90.59208412 28.11260684 87.35790457 31.32127024 84.125 34.53125 C83.57317928 35.07912485 83.02135857 35.6269997 82.45281601 36.19147682 C77.24411366 41.36382906 72.03788096 46.53865822 66.83665466 51.71852875 C60.20332688 58.32420409 53.55858456 64.91793414 46.89828873 71.49642038 C42.20231565 76.13665765 37.51977487 80.79018263 32.84696579 85.45374441 C30.0600339 88.2344202 27.26748523 91.00885209 24.46026611 93.76905823 C21.82486376 96.36085053 19.20647119 98.96868093 16.60019875 101.5897541 C15.185414 103.00405316 13.75328736 104.40093755 12.32072449 105.79722595 C7.48396736 110.57397217 7.48396736 110.57397217 5.2409668 116.80969238 C6.86398523 123.63143357 11.44615542 127.72684563 16.27018738 132.51069641 C17.01595718 133.25817506 17.76172699 134.00565372 18.53009588 134.77578324 C21.03120372 137.28018632 23.53939468 139.77737236 26.04760742 142.2746582 C27.84156011 144.06804679 29.6350726 145.86187581 31.42817688 147.65611267 C35.29010227 151.51849356 39.15507099 155.37778797 43.02284813 159.23430824 C48.61497188 164.81016714 54.20155463 170.39155072 59.78680722 175.97429135 C68.84899883 185.0321074 77.91564631 194.08544956 86.98510742 203.13598633 C95.79441838 211.92693487 104.60162305 220.7199848 113.40600586 229.51586914 C113.94885088 230.05818872 114.49169591 230.6005083 115.05099078 231.1592618 C117.77431425 233.87997516 120.49759639 236.60072989 123.22085798 239.32150519 C145.80750141 261.88742047 168.40138056 284.44607788 191 307 C189.60943247 309.88957585 188.28423561 311.96180378 186.00158691 314.22546387 C185.08044853 315.14639076 185.08044853 315.14639076 184.14070129 316.08592224 C183.46843002 316.74786087 182.79615875 317.4097995 182.10351562 318.09179688 C181.39442551 318.79796646 180.68533539 319.50413605 179.95475769 320.23170471 C178.41550594 321.76334932 176.87394811 323.29267908 175.33036804 324.81996155 C172.88858081 327.23623456 170.45308485 329.65868971 168.01916504 332.08288574 C161.97343227 338.10186675 155.91691127 344.10995559 149.86077881 350.11846924 C144.74305485 355.19677403 139.62941048 360.27912009 134.52116394 365.36695862 C132.11991901 367.75522246 129.71273539 370.13739012 127.30529785 372.51940918 C125.83539845 373.98204418 124.36577875 375.44496034 122.89648438 376.90820312 C122.2242131 377.57014175 121.55194183 378.23208038 120.85929871 378.91407776 C120.24520645 379.52802902 119.6311142 380.14198029 118.99841309 380.77453613 C118.46452721 381.30398079 117.93064133 381.83342545 117.38057709 382.37891388 C113.90395089 386.46119985 113.81132027 389.71696749 114 395 C114 399.69489835 113.33590515 400.40146462 110.25 403.75 C107.43989713 406.48487177 105.94567283 407.89368907 102.01171875 408.3359375 C98.9375 408.125 98.9375 408.125 96.08984375 407.6328125 C88.67000087 408.51456374 82.06172418 417.79407158 76.94750977 422.9230957 C76.18716934 423.68168381 75.42682892 424.44027191 74.64344788 425.22184753 C72.15693025 427.70400032 69.67404489 430.18974918 67.19140625 432.67578125 C65.45660258 434.40991076 63.72165054 436.14389184 61.98655701 437.87773132 C58.36481784 441.49800116 54.74488146 445.1200614 51.1262207 448.7434082 C46.48008063 453.39527075 41.82943123 458.04259526 37.17744541 462.68861103 C33.60099416 466.26145781 30.02691682 469.83667163 26.4535656 473.41261864 C24.73862109 475.12823141 23.02293018 476.84309841 21.30648994 478.55721474 C18.91748048 480.94369682 16.53167921 483.33333966 14.14672852 485.72387695 C13.43353455 486.43504669 12.72034058 487.14621643 11.98553467 487.87893677 C11.01635857 488.85234261 11.01635857 488.85234261 10.02760315 489.84541321 C9.46371667 490.40967671 8.89983019 490.97394022 8.31885624 491.55530262 C5.8677011 494.24033932 5.29782676 497.00215889 5.36787415 500.62345886 C6.83419596 506.13624415 11.83056514 509.932992 15.78710938 513.82226562 C16.83982152 514.88582468 17.89082564 515.95107666 18.94024658 517.0178833 C21.78993345 519.90399193 24.66428956 522.76427814 27.54488945 525.61949348 C30.5587348 528.6130595 33.55298371 531.62612441 36.55041504 534.6361084 C41.58701392 539.68725463 46.64022937 544.72131548 51.703125 549.74609375 C57.55315059 555.55258209 63.37379624 561.38733094 69.18001699 567.23759699 C74.16922377 572.26312837 79.17387842 577.27287522 84.19173288 582.26980352 C87.18719438 585.25280394 90.17701503 588.24091932 93.15299988 591.24336243 C95.95209733 594.06560082 98.77010223 596.8674911 101.60378265 599.65499115 C102.63941143 600.68005787 103.66832237 601.71196405 104.68981171 602.75112152 C110.57257299 609.21784884 110.57257299 609.21784884 118.5291748 611.6986084 C122.15118878 610.96956869 123.62909595 610.34658918 126.1875 607.75 C126.84621094 607.10804688 127.50492187 606.46609375 128.18359375 605.8046875 C128.78300781 605.20914063 129.38242188 604.61359375 130 604 C130.9075 603.29875 131.815 602.5975 132.75 601.875 C135.23547907 599.80376744 137.01204788 597.54706366 139 595 C140.6436814 593.31066078 142.3142876 591.64740076 144 590 C145.33468903 588.66802375 146.66791921 587.3345847 148 586 C201.33333333 532.66666667 254.66666667 479.33333333 308 426 C310.96953075 427.33547996 313.03888286 428.79447076 315.32503033 431.10407448 C315.96490562 431.74551797 316.60478092 432.38696145 317.26404637 433.04784262 C317.95829947 433.75406048 318.65255256 434.46027833 319.36784363 435.18789673 C320.48438016 436.31139513 320.48438016 436.31139513 321.62347299 437.45759046 C324.12375968 439.97569773 326.61682856 442.50083416 329.11010742 445.02587891 C330.89853265 446.82959745 332.68746507 448.63281322 334.47686768 450.43556213 C338.33327313 454.32204557 342.18691065 458.21124325 346.03868675 462.102314 C352.12772039 468.25259012 358.22888876 474.39075054 364.33235168 480.52670288 C365.37212737 481.57214037 366.41189449 482.61758637 367.45165318 483.66304076 C369.02739153 485.24740328 370.60313198 486.8317637 372.17889678 488.41609991 C378.11856299 494.38821829 384.05666758 500.36188743 389.9934082 506.33691406 C390.53606791 506.88306556 391.07872761 507.42921706 391.63783155 507.99191861 C400.4327498 516.84427151 409.21458341 525.70950908 417.99255653 534.57866068 C427.00611618 543.68504646 436.03683381 552.77416849 445.08285409 561.84830987 C450.66152827 567.4455479 456.22587753 573.05629755 461.77263144 578.68517266 C466.02442837 582.99718051 470.29948181 587.2853383 474.58374023 591.5651226 C476.33753843 593.32459791 478.08359667 595.091827 479.82128334 596.86721611 C482.19299712 599.28811005 484.59082182 601.67974196 486.99723816 604.06607056 C488.02188739 605.1320895 488.02188739 605.1320895 489.0672366 606.21964419 C492.45285283 609.51873674 494.85261287 611.43710512 499.67906666 611.68641281 C503.91696169 611.32161388 506.1108733 610.00531867 509.13769531 606.95132446 C510.04893661 606.0539003 510.96017792 605.15647614 511.89903259 604.2318573 C512.87582626 603.2248122 513.85217577 602.21733614 514.828125 601.20947266 C515.88007853 600.15661678 516.93401229 599.10573628 517.98976135 598.0566864 C520.8424378 595.21084922 523.6664939 592.33807812 526.48602676 589.45945024 C529.44183881 586.45099829 532.42285081 583.46772528 535.40112305 580.48153687 C540.39537546 575.46707814 545.37310968 570.43672299 550.33935547 565.39453125 C557.34884566 558.27787721 564.3866133 551.18972502 571.4307518 544.10738683 C580.85913945 534.62502413 590.27933623 525.13428217 599.66657829 515.61116982 C600.6844627 514.57914465 601.70317208 513.54793243 602.72274971 512.51758003 C604.11026592 511.11494623 605.49432038 509.70889047 606.87817383 508.30264282 C607.65461746 507.51543161 608.4310611 506.72822041 609.23103333 505.91715431 C612.03278317 502.88069983 612.53688661 500.35640368 612.46264553 496.20252228 C611.53190606 491.77153944 608.12916142 489.06507093 604.97668457 486.01464844 C603.84349879 484.87120956 603.84349879 484.87120956 602.68742037 483.70467091 C600.14943943 481.15350553 597.58390897 478.6319963 595.01757812 476.109375 C593.19322326 474.28727652 591.37062779 472.463415 589.54966736 470.63792419 C585.62566504 466.70972993 581.68729848 462.79643228 577.73875427 458.89291382 C572.02991327 453.24912927 566.34332945 447.58334458 560.6619094 441.91197288 C551.44334295 432.71090926 542.20705847 423.52784731 532.95947266 414.35595703 C523.97711769 405.44705037 515.0032157 396.52976784 506.04052734 387.60107422 C505.21163607 386.77533563 505.21163607 386.77533563 504.36599952 385.93291545 C501.59380891 383.17116525 498.82178342 380.4092494 496.04983997 377.64725113 C473.0587643 354.73908994 450.03887564 331.86008945 427 309 C428.59855537 305.62872527 430.34963032 303.40315073 433.00325012 300.75624084 C434.25865852 299.49670845 434.25865852 299.49670845 435.53942871 298.21173096 C436.45945679 297.29889343 437.37948486 296.38605591 438.32739258 295.44555664 C439.30521378 294.46829978 440.28259441 293.49060191 441.25956726 292.51249695 C443.91226485 289.85922537 446.57108687 287.2121686 449.23103929 284.56617284 C452.01630543 281.79342308 454.79589584 279.01499544 457.57609558 276.23716736 C462.84659585 270.97288557 468.12217117 265.7137203 473.39958829 260.45637363 C479.38705979 254.49118776 485.36891867 248.52038742 491.3502785 242.54907429 C501.58047136 232.33625636 511.8148912 222.127691 522.0539856 211.92379761 C526.03910681 207.95230106 530.02365357 203.98028313 534 200 C603 131 603 131 604.80078125 129.234375 C605.42339844 128.62078125 606.04601562 128.0071875 606.6875 127.375 C607.26886719 126.80523437 607.85023438 126.23546875 608.44921875 125.6484375 C610.95609174 122.98370097 611.98087518 121.09114948 612.73669434 117.4888916 C612.51984917 110.78003863 606.69295159 106.5816237 602.21289062 102.17773438 C601.16017848 101.11417532 600.10917436 100.04892334 599.05975342 98.9821167 C596.21006655 96.09600807 593.33571044 93.23572186 590.45511055 90.38050652 C587.4412652 87.3869405 584.44701629 84.37387559 581.44958496 81.3638916 C576.41298608 76.31274537 571.35977063 71.27868452 566.296875 66.25390625 C560.44684941 60.44741791 554.62620376 54.61266906 548.81998301 48.76240301 C543.83077623 43.73687163 538.82612158 38.72712478 533.80826712 33.73019648 C530.81280562 30.74719606 527.82298497 27.75908068 524.84700012 24.75663757 C522.04790267 21.93439918 519.22989777 19.1325089 516.39621735 16.34500885 C515.36058857 15.31994213 514.33167763 14.28803595 513.31018829 13.24887848 C507.54989883 6.97984935 507.54989883 6.97984935 499.9486084 3.82580566 C494.6569464 4.63817136 491.17273488 8.73745981 487.57402849 12.40065646 C485.83447447 14.16818767 484.06777576 15.90562544 482.29706955 17.64193916 C477.73914029 22.12569096 473.22428407 26.65185351 468.70849609 31.17797852 C466.97326796 32.9134891 465.23781885 34.64877877 463.50216675 36.38386536 C459.78269544 40.10310994 456.0647472 43.82386965 452.34821701 47.54605293 C446.97490283 52.92753492 441.59879076 58.30621479 436.22201748 63.68424045 C427.4961488 72.4122914 418.77251014 81.14256767 410.05029297 89.87426758 C401.58337393 98.35038216 393.11539293 106.82543349 384.64599609 115.29907227 C384.12291211 115.82241898 383.59982812 116.34576569 383.0608931 116.88497139 C380.43642017 119.51074947 377.81192649 122.13650683 375.18742251 124.76225388 C353.45506614 146.50495714 331.7263746 168.25131938 310 190 C307.04582658 188.66875109 304.96974459 187.2179452 302.68665123 184.92716026 C302.04942583 184.29268357 301.41220044 183.65820687 300.75566518 183.00450361 C300.06441915 182.30606765 299.37317311 181.60763169 298.66098022 180.88803101 C297.91985068 180.14719918 297.17872113 179.40636735 296.41513312 178.64308608 C293.92611678 176.15267772 291.44432676 173.65518954 288.96240234 171.15771484 C287.18227277 169.37374817 285.40168821 167.59023542 283.62068176 165.80714417 C279.78350206 161.9636359 275.94934216 158.11715393 272.11774826 154.26807785 C266.57672915 148.70196246 261.02925016 143.14232123 255.47997518 137.58443804 C246.47532447 128.56565325 237.47441852 119.54314164 228.4765625 110.51757812 C227.93804785 109.97740785 227.39953321 109.43723758 226.84469993 108.88069852 C223.0213683 105.04556369 219.19816981 101.21029615 215.375 97.375 C211.00432576 92.99046619 206.63358824 88.60599549 202.26269531 84.22167969 C201.72423081 83.68155893 201.18576631 83.14143818 200.63098471 82.58495013 C191.66434749 73.59097585 182.69380956 64.60090198 173.72046053 55.61362422 C168.18244977 50.06663492 162.64803286 44.51610482 157.11814417 38.96101822 C152.88663971 34.71072751 148.65012425 30.46546921 144.41170311 26.22207451 C142.66921166 24.47582136 140.92845856 22.72783172 139.18952751 20.97803307 C136.82591044 18.60010437 134.45631253 16.22830517 132.08505249 13.85800171 C131.38934501 13.15510431 130.69363753 12.4522069 129.97684801 11.72800958 C129.34483811 11.09874838 128.7128282 10.46948718 128.06166649 9.82115746 C127.51475918 9.27240656 126.96785187 8.72365567 126.40437162 8.15827596 C125.04624616 6.78790837 125.04624616 6.78790837 123 7 C123 6.34 123 5.68 123 5 C117.88835799 4.36104475 115.20264644 4.33816241 111.35498047 7.90515137 Z " fill="#FEFEFE" transform="translate(0,0)"/>
<path d="M0 0 C0 0.66 0 1.32 0 2 C0.59154696 2.26662268 1.18309391 2.53324536 1.79256654 2.80794752 C4.0465167 4.02511983 5.51517356 5.26657962 7.31893539 7.07283974 C7.95739419 7.70731643 8.59585298 8.34179313 9.25365901 8.99549639 C9.94626929 9.69393235 10.63887956 10.39236831 11.35247803 11.11196899 C12.0950187 11.85280082 12.83755938 12.59363265 13.60260129 13.35691392 C16.09629399 15.84730523 18.58275851 18.34479092 21.06933594 20.84228516 C22.852725 22.62623819 24.63655423 24.40975128 26.42079163 26.19285583 C30.26463774 30.03624611 34.10539283 33.8826841 37.94338226 37.73192215 C43.492474 43.2972669 49.04707914 48.85708183 54.60304609 54.41556196 C63.6170478 63.43394109 72.626574 72.45677764 81.63330078 81.48242188 C90.38258506 90.25006376 99.13396714 99.01560293 107.88818359 107.77832031 C108.69757655 108.58850144 108.69757655 108.58850144 109.52332088 109.41504987 C112.23032083 112.12465988 114.93736211 114.83422858 117.64442396 117.54377675 C140.10269684 140.02278357 162.55363761 162.50909979 185 185 C187.95140403 183.66955384 190.028322 182.22041369 192.31055546 179.93274689 C192.94716415 179.29950359 193.58377285 178.66626029 194.23967272 178.0138278 C194.93023664 177.31675608 195.62080055 176.61968436 196.33229065 175.90148926 C197.07271463 175.16206856 197.81313861 174.42264787 198.57599968 173.66082048 C201.0626863 171.17508857 203.54214543 168.68226958 206.02172852 166.18945312 C207.80024278 164.40873829 209.57920466 162.62847042 211.35858154 160.84861755 C215.19254205 157.01172056 219.02344666 153.17181247 222.85168648 149.32920837 C228.38944236 143.77077239 233.93318973 138.21834343 239.47851419 132.66745931 C248.47889275 123.65782428 257.47516162 114.64409773 266.46850586 105.62744141 C267.0067582 105.08779576 267.54501053 104.54815011 268.09957355 103.99215156 C268.63850537 103.4518242 269.1774372 102.91149685 269.73270029 102.35479593 C277.37471446 94.69301121 285.0176998 87.03219704 292.66186523 79.37255859 C293.19976433 78.83356865 293.73766343 78.2945787 294.2918625 77.73925573 C303.25469613 68.75841065 312.21955336 59.77958733 321.18545097 50.8018012 C326.71723018 45.26242473 332.24692072 39.72097767 337.77393936 34.17685115 C342.00578203 29.93209176 346.24004323 25.68975376 350.47518921 21.44828987 C352.21477094 19.70522816 353.95347989 17.96129492 355.69126701 16.21644402 C358.05679491 13.84151021 360.42535072 11.46963823 362.79469299 9.09851074 C363.48748763 8.40143902 364.18028227 7.7043673 364.89407068 6.9861722 C365.52807163 6.3529289 366.16207258 5.7196856 366.81528568 5.06725311 C367.36181327 4.51926166 367.90834086 3.97127021 368.47142988 3.40667295 C371.63911063 0.49160169 374.30434722 -0.8080218 378.65861511 -0.6672821 C384.13886027 0.8945583 387.93095527 5.82849318 391.82226562 9.78710938 C392.88582468 10.83982152 393.95107666 11.89082564 395.0178833 12.94024658 C397.90399193 15.78993345 400.76427814 18.66428956 403.61949348 21.54488945 C406.6130595 24.5587348 409.62612441 27.55298371 412.6361084 30.55041504 C417.68725463 35.58701392 422.72131548 40.64022937 427.74609375 45.703125 C433.55258209 51.55315059 439.38733094 57.37379624 445.23759699 63.18001699 C450.26312837 68.16922377 455.27287522 73.17387842 460.26980352 78.19173288 C463.25280394 81.18719438 466.24091932 84.17701503 469.24336243 87.15299988 C472.06560082 89.95209733 474.8674911 92.77010223 477.65499115 95.60378265 C478.68005787 96.63941143 479.71196405 97.66832237 480.75112152 98.68981171 C489.57194127 107.37439697 489.57194127 107.37439697 489.72375488 112.50183105 C488.87915956 116.58406552 487.74201467 118.25798533 484.8125 121.1875 C483.98878906 122.03054687 483.16507813 122.87359375 482.31640625 123.7421875 C481.16978516 124.85980469 481.16978516 124.85980469 480 126 C479.0925 126.928125 478.185 127.85625 477.25 128.8125 C476.5075 129.534375 475.765 130.25625 475 131 C473.33193454 132.6652667 471.66544879 134.33211634 470 136 C414.66666667 191.33333333 359.33333333 246.66666667 304 302 C305.33564914 304.96961761 306.79548598 307.04042688 309.10407448 309.32782364 C309.74551797 309.96831563 310.38696145 310.60880763 311.04784262 311.26870847 C311.75406048 311.96364368 312.46027833 312.6585789 313.18789673 313.37457275 C313.93689566 314.11963601 314.68589459 314.86469926 315.45759046 315.63234019 C317.97568913 318.13496525 320.50082436 320.63037136 323.02587891 323.12597656 C324.82959063 324.91603162 326.63280657 326.70658637 328.43556213 328.49760437 C332.32198651 332.35734382 336.21116227 336.21427919 340.102314 340.06925201 C346.25213897 346.16266954 352.39043202 352.26763227 358.52670288 358.37469482 C360.62643463 360.46417794 362.72621594 362.55361125 364.82599449 364.64304733 C365.61309668 365.42629142 365.61309668 365.42629142 366.41609991 366.22535862 C372.38813462 372.16793151 378.36191432 378.10874822 384.33691406 384.04833984 C384.88306556 384.59126186 385.42921706 385.13418387 385.99191861 385.69355807 C394.84565552 394.49420754 403.71053125 403.28356618 412.57866068 412.06970933 C421.68318843 421.09077801 430.7723769 430.12710563 439.84830987 439.17694259 C445.4471326 444.75856847 451.05807595 450.32742501 456.68517266 455.88054791 C460.995064 460.13616363 465.2838362 464.4124342 469.5651226 468.69684792 C471.32547208 470.45179309 473.09271957 472.1998496 474.86721611 473.94048882 C477.28567241 476.31477654 479.67832374 478.71238142 482.06607056 481.11749268 C482.77674986 481.803505 483.48742915 482.48951733 484.21964419 483.19631791 C487.3481816 486.39711531 489.41811399 488.65469541 489.61335754 493.25117111 C489.00944315 496.94228368 488.70006699 498.29456489 486.12020874 500.86376953 C485.15415773 501.85863373 485.15415773 501.85863373 484.16859055 502.87359619 C483.45295567 503.57530945 482.73732079 504.27702271 482 505 C480.46119729 506.5985267 478.92269139 508.19733916 477.38442993 509.79638672 C475.61761269 511.59322217 473.8482011 513.38750908 472.07666016 515.1796875 C471.09503528 516.17579692 470.11354813 517.1720421 469.13218689 518.16841125 C460.23998297 527.18989936 451.31619159 536.1803758 442.3850956 545.16334534 C435.79403131 551.79341416 429.21820803 558.43787963 422.66127741 565.10171127 C418.03468402 569.80115999 413.39099342 574.48327996 408.73443258 579.15303421 C405.95884271 581.93747661 403.19143259 584.72904611 400.44240189 587.53973389 C397.85981923 590.17959653 395.25670894 592.79733645 392.63646126 595.39980125 C391.22630036 596.81125675 389.83853069 598.24497307 388.45161438 599.67927551 C387.59952896 600.51754379 386.74744354 601.35581207 385.86953735 602.21948242 C384.77840606 603.3211097 384.77840606 603.3211097 383.6652317 604.44499207 C379.72210647 606.74557667 376.44138298 607.06715849 372 606 C368.84343431 604.09491597 366.442881 601.62149388 363.89439392 598.97668457 C363.13124691 598.22122738 362.3680999 597.4657702 361.58182722 596.68742037 C359.03129414 594.15170653 356.51425111 591.58517717 353.99584961 589.01757812 C352.17381862 587.1930084 350.34980336 585.37041833 348.5239563 583.54966736 C344.59684433 579.62726941 340.68651753 575.68876077 336.78718376 571.73875427 C331.14947261 566.02782788 325.48700401 560.34198432 319.81823082 554.6619094 C310.62129004 545.44528208 301.4446176 536.2087457 292.28051758 526.95947266 C283.37962674 517.97594165 274.46931042 509.00193379 265.54614258 500.04052734 C264.99591291 499.48793316 264.44568324 498.93533898 263.87877994 498.36599952 C261.11831769 495.59379173 258.35766898 492.82176971 255.59692752 490.04983997 C232.70230177 467.06194835 209.84050718 444.04166599 187 421 C183.62872527 422.59855537 181.40315073 424.34963032 178.75624084 427.00325012 C177.91655258 427.84018906 177.07686432 428.67712799 176.21173096 429.53942871 C175.29889343 430.45945679 174.38605591 431.37948486 173.44555664 432.32739258 C172.46829978 433.30521378 171.49060191 434.28259441 170.51249695 435.25956726 C167.85922537 437.91226485 165.2121686 440.57108687 162.56617284 443.23103929 C159.79342308 446.01630543 157.01499544 448.79589584 154.23716736 451.57609558 C148.97288557 456.84659585 143.7137203 462.12217117 138.45637363 467.39958829 C132.49118776 473.38705979 126.52038742 479.36891867 120.54907429 485.3502785 C110.33625636 495.58047136 100.127691 505.8148912 89.92379761 516.0539856 C85.95230106 520.03910681 81.98028313 524.02365357 78 528 C77.41476563 528.58523438 76.82953125 529.17046875 76.2265625 529.7734375 C53.81770833 552.18229167 31.40885417 574.59114583 9 597 C8.33226562 597.67933594 7.66453125 598.35867188 6.9765625 599.05859375 C6.26242188 599.78175781 5.54828125 600.50492188 4.8125 601.25 C3.80123047 602.27867187 3.80123047 602.27867187 2.76953125 603.328125 C-0.06105987 606.00250248 -2.70095489 606.70799948 -6.62345886 606.63212585 C-12.13624415 605.16580404 -15.932992 600.16943486 -19.82226562 596.21289062 C-20.88582468 595.16017848 -21.95107666 594.10917436 -23.0178833 593.05975342 C-25.90399193 590.21006655 -28.76427814 587.33571044 -31.61949348 584.45511055 C-34.6130595 581.4412652 -37.62612441 578.44701629 -40.6361084 575.44958496 C-45.68725463 570.41298608 -50.72131548 565.35977063 -55.74609375 560.296875 C-61.55258209 554.44684941 -67.38733094 548.62620376 -73.23759699 542.81998301 C-78.26312837 537.83077623 -83.27287522 532.82612158 -88.26980352 527.80826712 C-91.25280394 524.81280562 -94.24091932 521.82298497 -97.24336243 518.84700012 C-100.06560082 516.04790267 -102.8674911 513.22989777 -105.65499115 510.39621735 C-106.68005787 509.36058857 -107.71196405 508.33167763 -108.75112152 507.31018829 C-117.55524447 498.64204194 -117.55524447 498.64204194 -118.04919434 493.8236084 C-116.59789183 488.53458589 -113.86504106 485.77058964 -110 482 C-109.37758612 481.35651674 -108.75517223 480.71303349 -108.11389732 480.05005074 C-106.12320267 477.99332349 -104.10379716 475.96855012 -102.0769043 473.94750977 C-101.31831619 473.18716934 -100.55972809 472.42682892 -99.77815247 471.64344788 C-97.29599968 469.15693025 -94.81025082 466.67404489 -92.32421875 464.19140625 C-90.59008924 462.45660258 -88.85610816 460.72165054 -87.12226868 458.98655701 C-83.50199884 455.36481784 -79.8799386 451.74488146 -76.2565918 448.1262207 C-71.60472925 443.48008063 -66.95740474 438.82943123 -62.31138897 434.17744541 C-58.73854219 430.60099416 -55.16332837 427.02691682 -51.58738136 423.4535656 C-49.87176859 421.73862109 -48.15690159 420.02293018 -46.44278526 418.30648994 C-44.05630318 415.91748048 -41.66666034 413.53167921 -39.27612305 411.14672852 C-38.56495331 410.43353455 -37.85378357 409.72034058 -37.12106323 408.98553467 C-36.14765739 408.01635857 -36.14765739 408.01635857 -35.15458679 407.02760315 C-34.59032329 406.46371667 -34.02605978 405.89983019 -33.44469738 405.31885624 C-30.53144229 402.6593618 -27.83764557 402.70959275 -23.97265625 402.80078125 C-22 403 -22 403 -19.5625 403.9375 C-17.00305231 407.31597095 -16.55745863 410.8182529 -17 415 C-18.80233012 418.20723747 -21.30406828 420.5210689 -23.97070312 423.02661133 C-24.72318832 423.77252533 -25.47567352 424.51843933 -26.2509613 425.28695679 C-28.73886872 427.74245496 -31.25967423 430.16116298 -33.78125 432.58203125 C-35.51395443 434.28338146 -37.24410694 435.9873342 -38.97180176 437.69377136 C-43.52170435 442.17718971 -48.09860223 446.63191922 -52.68389893 451.07910156 C-60.02947191 458.20895137 -67.34152084 465.37279853 -74.63792419 472.5529232 C-77.19632693 475.06005752 -79.77102636 477.54954165 -82.34777832 480.03779602 C-83.90884817 481.56474174 -85.46938406 483.09223362 -87.02929688 484.62036133 C-87.75447006 485.31184769 -88.47964325 486.00333405 -89.22679138 486.71577454 C-89.87475174 487.35615662 -90.5227121 487.9965387 -91.19030762 488.65632629 C-91.76035271 489.20877423 -92.3303978 489.76122217 -92.91771698 490.33041096 C-94.19789693 491.94516561 -94.19789693 491.94516561 -93.88786793 493.97206688 C-92.80848417 496.43743139 -91.50264888 497.88061822 -89.60380554 499.79060364 C-88.87618011 500.52957886 -88.14855469 501.26855408 -87.39888 502.02992249 C-86.59524521 502.83062668 -85.79161041 503.63133087 -84.96362305 504.45629883 C-84.12134155 505.30704987 -83.27906006 506.1578009 -82.41125488 507.03433228 C-80.10079068 509.3641924 -77.78362726 511.6871067 -75.46250129 514.00633836 C-73.52637867 515.94234134 -71.59461513 517.88266568 -69.66272575 519.82289141 C-65.1068198 524.39803004 -60.54278566 528.96494904 -55.97387695 533.52709961 C-51.25659485 538.23773263 -46.55428637 542.96294885 -41.85889596 547.69539434 C-37.82873371 551.7562063 -33.78901593 555.80733679 -29.74155074 559.85090274 C-27.3234229 562.26695908 -24.90925566 564.68667189 -22.50440025 567.11594582 C-19.8228189 569.81954034 -17.12598958 572.50693162 -14.42456055 575.19067383 C-13.62699844 576.00149918 -12.82943634 576.81232452 -12.00770569 577.64772034 C-11.27162079 578.37259644 -10.53553589 579.09747253 -9.77714539 579.84431458 C-9.14056346 580.48160901 -8.50398153 581.11890345 -7.84810925 581.77550983 C-6.09973724 583.22249925 -6.09973724 583.22249925 -4.09352964 582.76267022 C-1.66452534 581.877787 -0.47623838 580.84812115 1.34458351 579.02176666 C1.9887757 578.38293092 2.63296788 577.74409518 3.29668105 577.08590078 C3.99570898 576.37745221 4.69473691 575.66900363 5.41494751 574.93908691 C6.16424416 574.19164797 6.91354081 573.44420903 7.68554342 572.67412043 C10.20461353 570.15765839 12.71278529 567.6306044 15.22119141 565.10351562 C17.02081768 563.30140713 18.82111151 561.49996505 20.62202454 559.69914246 C24.50332064 555.81513677 28.37999656 551.92660932 32.25264359 548.03398132 C37.85352781 542.40430303 43.46314298 536.78339102 49.07503121 531.16468436 C58.18167292 522.04659512 67.28195976 512.92219141 76.37792969 503.79345703 C85.21067261 494.92893846 94.04513757 486.06614472 102.8828125 477.20654297 C103.42725099 476.6607509 103.97168948 476.11495884 104.53262611 475.55262762 C110.47321199 469.59740859 116.41449739 463.64288816 122.35661888 457.68920135 C122.87846488 457.16633697 123.40031088 456.64347259 123.93797039 456.10476384 C126.02376997 454.01491281 128.10957715 451.92506939 130.19547419 449.83531564 C136.30911015 443.71034088 142.42053834 437.58318249 148.52804671 431.4520973 C152.80871761 427.15501595 157.09169242 422.8602391 161.375494 418.56627846 C163.13646167 416.80022361 164.89655207 415.03329354 166.65572166 413.26544762 C169.04789073 410.86166616 171.44306536 408.46092062 173.83901978 406.06091309 C174.54250915 405.35246451 175.24599853 404.64401593 175.97080576 403.91409922 C176.60978246 403.27526348 177.24875915 402.63642774 177.90709877 401.97823334 C178.4600816 401.42324457 179.01306443 400.8682558 179.58280432 400.29644918 C181.77335825 398.29253265 183.14953357 397.97606225 186.13511372 397.49812222 C191.71954628 398.22329301 194.02328991 401.08483192 197.83818054 405.03004456 C198.59679644 405.78620731 199.35541234 406.54237006 200.13701659 407.32144684 C202.67949916 409.8641079 205.1960901 412.43094224 207.71362305 414.99829102 C209.52925991 416.82408567 211.34647882 418.64830825 213.16516113 420.47106934 C217.08102277 424.40031039 220.98412179 428.34186753 224.87909508 432.29181099 C230.51239595 438.00413784 236.16732505 443.69465616 241.82824252 449.37960123 C251.01453608 458.60560137 260.18691564 467.84529824 269.34887695 477.09545898 C270.17126092 477.92574805 270.17126092 477.92574805 271.01025871 478.77281063 C273.23194813 481.01590122 275.45360201 483.259027 277.67521037 485.50219787 C283.7955597 491.68174489 289.91827522 497.85894446 296.04223633 504.03491211 C296.59072983 504.58807169 297.13922334 505.14123128 297.70433786 505.71115328 C306.83993052 514.92376627 315.98542434 524.12649731 325.13724166 533.32299179 C330.78413577 538.9985527 336.42133583 544.68343832 342.04646514 550.38057303 C346.35164956 554.73975594 350.66915337 559.08653446 354.9913559 563.42884064 C356.76632214 565.21641409 358.53692929 567.00832751 360.30293465 568.80475426 C362.70492887 571.24701123 365.12164354 573.67367082 367.54277039 576.09693909 C368.59786923 577.1810465 368.59786923 577.1810465 369.67428321 578.28705508 C370.32235869 578.92949221 370.97043417 579.57192934 371.63814831 580.23383427 C372.47315736 581.07738298 372.47315736 581.07738298 373.32503527 581.93797308 C374.96815299 583.2249754 374.96815299 583.2249754 377.09425974 582.76479697 C379.54127933 581.78277796 380.92053862 580.46296136 382.79060364 578.60380554 C383.52957886 577.87618011 384.26855408 577.14855469 385.02992249 576.39888 C385.83062668 575.59524521 386.63133087 574.79161041 387.45629883 573.96362305 C388.30704987 573.12134155 389.1578009 572.27906006 390.03433228 571.41125488 C392.3641924 569.10079068 394.6871067 566.78362726 397.00633836 564.46250129 C398.94234134 562.52637867 400.88266568 560.59461513 402.82289141 558.66272575 C407.39803004 554.1068198 411.96494904 549.54278566 416.52709961 544.97387695 C421.23773263 540.25659485 425.96294885 535.55428637 430.69539434 530.85889596 C434.7562063 526.82873371 438.80733679 522.78901593 442.85090274 518.74155074 C445.26695908 516.3234229 447.68667189 513.90925566 450.11594582 511.50440025 C452.81954034 508.8228189 455.50693162 506.12598958 458.19067383 503.42456055 C459.00149918 502.62699844 459.81232452 501.82943634 460.64772034 501.00770569 C461.37259644 500.27162079 462.09747253 499.53553589 462.84431458 498.77714539 C463.48160901 498.14056346 464.11890345 497.50398153 464.77550983 496.84810925 C466.22226124 495.09979794 466.22226124 495.09979794 465.76382089 493.09363282 C464.87530301 490.65820559 463.84023745 489.47442252 462.00335598 487.65376568 C461.36042015 487.00917359 460.71748431 486.3645815 460.05506557 485.70045632 C458.9855331 484.6511939 458.9855331 484.6511939 457.89439392 483.58073425 C457.14216586 482.83088188 456.3899378 482.08102951 455.61491495 481.30845433 C453.08223511 478.78726163 450.53902603 476.27695837 447.99584961 473.76635742 C446.1822268 471.96503513 444.36931107 470.1630007 442.55705261 468.36030579 C438.64812865 464.474455 434.73491165 460.59300663 430.81822014 456.7149868 C424.6287562 450.58595255 418.45366266 444.44255297 412.28065491 438.29695129 C410.16876268 436.19481755 408.05675227 434.09280259 405.94468784 431.99084187 C405.41686444 431.46554254 404.88904104 430.94024322 404.34522299 430.39902573 C398.33667564 424.41972686 392.32454849 418.44403224 386.3112793 412.46948242 C385.48671787 411.65022001 385.48671787 411.65022001 384.64549864 410.81440685 C375.734062 401.96082104 366.81467926 393.11527036 357.89366942 384.27133247 C348.73686891 375.19296401 339.59354862 366.10116097 330.46139342 356.99800187 C324.82682329 351.38237246 319.18124714 345.7782762 313.52108539 340.18844018 C309.18621146 335.90542558 304.86962842 331.60445035 300.55957222 327.29644585 C298.78706393 325.53066938 297.00851164 323.77093673 295.22361755 322.01768112 C292.79221594 319.62767894 290.38319396 317.21716641 287.97862244 314.80021667 C287.26337007 314.10740056 286.5481177 313.41458444 285.81119102 312.70077389 C282.80557879 309.6384258 281.1835511 307.7327039 280.1263361 303.51248646 C281.39949439 298.39386903 284.31728455 295.65094548 288 292 C288.90230709 291.067899 288.90230709 291.067899 289.8228426 290.11696768 C291.72990514 288.15870791 293.66415521 286.23098656 295.6060791 284.30731201 C296.33963796 283.57642656 297.07319682 282.8455411 297.82898474 282.0925076 C300.26707451 279.66441177 302.70874926 277.23995366 305.15039062 274.81542969 C306.90697194 273.06732266 308.66329248 271.31895356 310.41937256 269.57034302 C313.7032493 266.3009865 316.98789836 263.03241154 320.27378029 259.76507071 C326.72273173 253.35249523 333.16539636 246.9336364 339.60583496 240.51251221 C340.62157527 239.49988204 341.63731934 238.48725565 342.65306711 237.47463298 C344.19177731 235.94064789 345.73048409 234.40665937 347.26917627 232.87265621 C353.05633598 227.10318466 358.84419897 221.33441916 364.6328125 215.56640625 C365.16144573 215.03965007 365.69007896 214.5128939 366.23473138 213.97017542 C374.82335721 205.41251631 383.41930193 196.86224076 392.01746398 188.31416449 C400.85109601 179.53155488 409.67521182 170.7394635 418.49091482 161.93885732 C423.92704034 156.51271096 429.37075429 151.09440832 434.82437938 145.68584946 C438.99380395 141.54938269 443.15018291 137.39997972 447.30170441 133.24554062 C449.01028089 131.53994914 450.72318471 129.83868052 452.4405899 128.14197922 C454.77528105 125.83420362 457.09426321 123.51173317 459.40979004 121.18475342 C460.10051684 120.50927294 460.79124364 119.83379247 461.50290155 119.13784289 C462.11663803 118.51476788 462.7303745 117.89169286 463.36270905 117.24973679 C463.90001601 116.7148705 464.43732297 116.18000421 464.99091196 115.62892985 C466.22140746 114.01948222 466.22140746 114.01948222 465.7567423 111.91274744 C464.78440932 109.45507139 463.46724072 108.08376586 461.60380554 106.20939636 C460.87618011 105.47042114 460.14855469 104.73144592 459.39888 103.97007751 C458.59524521 103.16937332 457.79161041 102.36866913 456.96362305 101.54370117 C456.12134155 100.69295013 455.27906006 99.8421991 454.41125488 98.96566772 C452.10079068 96.6358076 449.78362726 94.3128933 447.46250129 91.99366164 C445.52637867 90.05765866 443.59461513 88.11733432 441.66272575 86.17710859 C437.1068198 81.60196996 432.54278566 77.03505096 427.97387695 72.47290039 C423.25659485 67.76226737 418.55428637 63.03705115 413.85889596 58.30460566 C409.82873371 54.2437937 405.78901593 50.19266321 401.74155074 46.14909726 C399.3234229 43.73304092 396.90925566 41.31332811 394.50440025 38.88405418 C391.8228189 36.18045966 389.12598958 33.49306838 386.42456055 30.80932617 C385.62699844 29.99850082 384.82943634 29.18767548 384.00770569 28.35227966 C383.27162079 27.62740356 382.53553589 26.90252747 381.77714539 26.15568542 C381.14056346 25.51839099 380.50398153 24.88109655 379.84810925 24.22449017 C378.09979794 22.77773876 378.09979794 22.77773876 376.09363282 23.23617911 C373.65820559 24.12469699 372.47442252 25.15976255 370.65376568 26.99664402 C370.00917359 27.63957985 369.3645815 28.28251569 368.70045632 28.94493443 C368.00094804 29.65795607 367.30143976 30.37097772 366.58073425 31.10560608 C365.83088188 31.85783414 365.08102951 32.6100622 364.30845433 33.38508505 C361.78726163 35.91776489 359.27695837 38.46097397 356.76635742 41.00415039 C354.96503513 42.8177732 353.1630007 44.63068893 351.36030579 46.44294739 C347.474455 50.35187135 343.59300663 54.26508835 339.7149868 58.18177986 C333.58595255 64.3712438 327.44255297 70.54633734 321.29695129 76.71934509 C319.19481755 78.83123732 317.09280259 80.94324773 314.99084187 83.05531216 C314.46554254 83.58313556 313.94024322 84.11095896 313.39902573 84.65477701 C307.41972686 90.66332436 301.44403224 96.67545151 295.46948242 102.6887207 C294.92330748 103.23842832 294.37713254 103.78813594 293.81440685 104.35450136 C284.96082104 113.265938 276.11527036 122.18532074 267.27133247 131.10633058 C258.19296401 140.26313109 249.10116097 149.40645138 239.99800187 158.53860658 C234.38237246 164.17317671 228.7782762 169.81875286 223.18844018 175.47891461 C218.90542558 179.81378854 214.60445035 184.13037158 210.29644585 188.44042778 C208.53066938 190.21293607 206.77093673 191.99148836 205.01768112 193.77638245 C202.62767894 196.20778406 200.21716641 198.61680604 197.80021667 201.02137756 C197.10740056 201.73662993 196.41458444 202.4518823 195.70077389 203.18880898 C192.6384258 206.19442121 190.7327039 207.8164489 186.51248646 208.8736639 C181.39386903 207.60050561 178.65094548 204.68271545 175 201 C174.067899 200.09769291 174.067899 200.09769291 173.11696768 199.1771574 C171.15870791 197.27009486 169.23098656 195.33584479 167.30731201 193.3939209 C166.21098383 192.29358261 166.21098383 192.29358261 165.0925076 191.17101526 C162.66441177 188.73292549 160.23995366 186.29125074 157.81542969 183.84960938 C156.06732266 182.09302806 154.31895356 180.33670752 152.57034302 178.58062744 C149.3009865 175.2967507 146.03241154 172.01210164 142.76507071 168.72621971 C136.35249523 162.27726827 129.9336364 155.83460364 123.51251221 149.39416504 C122.49988204 148.37842473 121.48725565 147.36268066 120.47463298 146.34693289 C118.94064789 144.80822269 117.40665937 143.26951591 115.87265621 141.73082373 C110.10318466 135.94366402 104.33441916 130.15580103 98.56640625 124.3671875 C98.03965007 123.83855427 97.5128939 123.30992104 96.97017542 122.76526862 C88.41251631 114.17664279 79.86224076 105.58069807 71.31416449 96.98253602 C62.53155488 88.14890399 53.7394635 79.32478818 44.93885732 70.50908518 C39.51271096 65.07295966 34.09440832 59.62924571 28.68584946 54.17562062 C24.54938269 50.00619605 20.39997972 45.84981709 16.24554062 41.69829559 C14.53994914 39.98971911 12.83868052 38.27681529 11.14197922 36.5594101 C8.83420362 34.22471895 6.51173317 31.90573679 4.18475342 29.59020996 C3.50927294 28.89948316 2.83379247 28.20875636 2.13784289 27.49709845 C1.51476788 26.88336197 0.89169286 26.2696255 0.24973679 25.63729095 C-0.2851295 25.09998399 -0.81999579 24.56267703 -1.37107015 24.00908804 C-2.98051778 22.77859254 -2.98051778 22.77859254 -5.08725256 23.2432577 C-7.54492861 24.21559068 -8.91623414 25.53275928 -10.79060364 27.39619446 C-11.52957886 28.12381989 -12.26855408 28.85144531 -13.02992249 29.60112 C-14.23097878 30.80657219 -14.23097878 30.80657219 -15.45629883 32.03637695 C-16.30704987 32.87865845 -17.1578009 33.72093994 -18.03433228 34.58874512 C-20.3641924 36.89920932 -22.6871067 39.21637274 -25.00633836 41.53749871 C-26.94234134 43.47362133 -28.88266568 45.40538487 -30.82289141 47.33727425 C-35.39803004 51.8931802 -39.96494904 56.45721434 -44.52709961 61.02612305 C-49.23773263 65.74340515 -53.96294885 70.44571363 -58.69539434 75.14110404 C-62.7562063 79.17126629 -66.80733679 83.21098407 -70.85090274 87.25844926 C-73.26695908 89.6765771 -75.68667189 92.09074434 -78.11594582 94.49559975 C-80.81954034 97.1771811 -83.50693162 99.87401042 -86.19067383 102.57543945 C-87.00149918 103.37300156 -87.81232452 104.17056366 -88.64772034 104.99229431 C-89.37259644 105.72837921 -90.09747253 106.46446411 -90.84431458 107.22285461 C-91.48160901 107.85943654 -92.11890345 108.49601847 -92.77550983 109.15189075 C-94.22249925 110.90026276 -94.22249925 110.90026276 -93.76267022 112.90647036 C-92.877787 115.33547466 -91.84812115 116.52376162 -90.02176666 118.34458351 C-89.06351305 119.31087179 -89.06351305 119.31087179 -88.08590078 120.29668105 C-87.37745221 120.99570898 -86.66900363 121.69473691 -85.93908691 122.41494751 C-84.8179285 123.53889248 -84.8179285 123.53889248 -83.67412043 124.68554342 C-81.15765839 127.20461353 -78.6306044 129.71278529 -76.10351562 132.22119141 C-74.30140713 134.02081768 -72.49996505 135.82111151 -70.69914246 137.62202454 C-66.81513677 141.50332064 -62.92660932 145.37999656 -59.03398132 149.25264359 C-53.40430303 154.85352781 -47.78339102 160.46314298 -42.16468436 166.07503121 C-33.04659512 175.18167292 -23.92219141 184.28195976 -14.79345703 193.37792969 C-5.92893846 202.21067261 2.93385528 211.04513757 11.79345703 219.8828125 C12.3392491 220.42725099 12.88504116 220.97168948 13.44737238 221.53262611 C19.40259141 227.47321199 25.35711184 233.41449739 31.31079865 239.35661888 C31.83366303 239.87846488 32.35652741 240.40031088 32.89523616 240.93797039 C34.98508719 243.02376997 37.07493061 245.10957715 39.16468436 247.19547419 C45.28965912 253.30911015 51.41681751 259.42053834 57.5479027 265.52804671 C61.84498405 269.80871761 66.1397609 274.09169242 70.43372154 278.375494 C72.19977639 280.13646167 73.96670646 281.89655207 75.73455238 283.65572166 C78.13833384 286.04789073 80.53907938 288.44306536 82.93908691 290.83901978 C83.64753549 291.54250915 84.35598407 292.24599853 85.08590078 292.97080576 C85.72473652 293.60978246 86.36357226 294.24875915 87.02176666 294.90709877 C87.85424982 295.73657302 87.85424982 295.73657302 88.70355082 296.58280432 C90.67647926 298.73948404 91.02860302 300.15919265 91.55392456 303.08291626 C90.72071417 308.97497291 87.30064606 311.63254427 83.13720703 315.67333984 C82.30161255 316.51156281 81.46601807 317.34978577 80.60510254 318.21340942 C78.31582502 320.50287039 76.01175333 322.77604361 73.69996119 325.04272795 C71.28366002 327.41891941 68.88685225 329.81461557 66.48776245 332.2081604 C62.45876466 336.22245608 58.41731821 340.22383544 54.36669922 344.21630859 C48.65082163 349.85017574 42.95787413 355.50678164 37.26929688 361.16819453 C32.85309819 365.56176745 28.43113432 369.94953742 24.0078125 374.3359375 C23.53290202 374.8069424 23.05799153 375.2779473 22.56868982 375.76322508 C19.42405994 378.8809722 16.27412188 381.99328061 13.12158203 385.10302734 C12.32460907 385.89259827 11.52763611 386.68216919 10.70651245 387.4956665 C9.98014587 388.2105423 9.2537793 388.92541809 8.50540161 389.66195679 C7.87305162 390.28613684 7.24070164 390.91031689 6.58918953 391.55341148 C3.60962826 394.26561102 0.95766264 394.34582114 -3.0234375 394.2734375 C-5 394 -5 394 -7.5 392.4375 C-9.60248778 389.02095736 -9.54531303 386.95351948 -9 383 C-6.01709224 377.7929278 -2.09111898 373.818374 2.15527344 369.61767578 C2.86786819 368.90478897 3.58046295 368.19190216 4.31465149 367.45741272 C6.65818058 365.11527079 9.00870172 362.78028228 11.359375 360.4453125 C12.99077257 358.81764723 14.62172752 357.18953822 16.2522583 355.56100464 C20.53532476 351.28555748 24.82436438 347.01615185 29.11468506 342.74798584 C33.49545197 338.38771398 37.87053017 334.02174232 42.24609375 329.65625 C50.82517805 321.09858558 59.41058482 312.54729428 68 304 C66.6665195 301.03926019 65.2099432 298.96176127 62.9143362 296.67382717 C62.27699281 296.03373508 61.63964942 295.39364299 60.98299259 294.73415416 C60.2813478 294.0396993 59.57970302 293.34524444 58.85679626 292.62974548 C57.74048154 291.51298419 57.74048154 291.51298419 56.60161501 290.37366205 C54.09972121 287.87316032 51.59074711 285.37988469 49.08178711 282.88647461 C47.28959086 281.09811547 45.49784853 279.30930133 43.70652771 277.52006531 C39.84501462 273.66488105 35.98052753 269.81271669 32.11344719 265.9631176 C26.52020959 260.39497943 20.93344883 254.82037861 15.34844548 249.24398262 C6.28421972 240.19389167 -2.78373237 231.14754492 -11.85473633 222.10424805 C-12.3976349 221.5630051 -12.94053348 221.02176214 -13.49988353 220.46411789 C-17.35399046 216.62181306 -21.20823034 212.7796416 -25.0625 208.9375 C-29.46697103 204.54688667 -33.87138039 200.15621151 -38.27563477 195.76538086 C-38.81817711 195.22449477 -39.36071946 194.68360868 -39.91970248 194.1263321 C-48.95775765 185.11562512 -57.99190406 176.10100908 -67.02325433 167.08358198 C-72.59634115 161.51946853 -78.17296617 155.95894618 -83.75416075 150.4029652 C-88.02623122 146.14969924 -92.29325286 141.89140576 -96.55841637 137.63121223 C-98.31231038 135.88107617 -100.06793914 134.13267669 -101.82538605 132.3861084 C-104.21611578 130.00971771 -106.6006885 127.62731763 -108.98377991 125.24327087 C-109.68765542 124.54658529 -110.39153093 123.8498997 -111.11673599 123.13210243 C-111.75147164 122.49461809 -112.38620729 121.85713374 -113.04017735 121.20033169 C-113.59158628 120.65076634 -114.14299522 120.10120099 -114.71111351 119.53498214 C-116.80008166 117.04715343 -117.01790097 114.80816893 -117.31554222 111.61857414 C-116.93591425 107.2650776 -116.00987416 106.14132043 -112.95132446 103.10281372 C-112.0539003 102.19432175 -111.15647614 101.28582977 -110.2318573 100.34980774 C-109.22472065 99.36584776 -108.21724776 98.38223185 -107.20947266 97.39892578 C-106.15704677 96.34683749 -105.10615491 95.29321276 -104.0566864 94.23817444 C-101.20651356 91.38172551 -98.33519357 88.54743454 -95.45945024 85.71676111 C-92.45459425 82.75197091 -89.46919062 79.76772021 -86.48153687 76.78561401 C-81.46390996 71.78269676 -76.43378118 66.79265626 -71.39453125 61.81152344 C-64.282083 54.78106196 -57.19252588 47.72786288 -50.10738683 40.66989541 C-44.6097458 35.19487726 -39.10632838 29.72566591 -33.6015625 24.2578125 C-33.01008313 23.67023871 -32.41860375 23.08266492 -31.80920076 22.47728586 C-28.41330691 19.10469741 -25.01446356 15.73513003 -21.61116982 12.37000847 C-20.57913348 11.34890929 -19.54792106 10.32697661 -18.51758003 9.30416679 C-17.11493647 7.91218199 -15.7088852 6.52363346 -14.30264282 5.13528442 C-13.51543161 4.35624315 -12.72822041 3.57720188 -11.91715431 2.7745533 C-8.10628001 -0.75286206 -4.99772441 -0.08060846 0 0 Z " fill="#030405" transform="translate(123,5)"/>
<path d="M0 0 C4.6930102 3.83973562 9.13544377 7.91896896 13.5 12.125 C14.05268555 12.6396582 14.60537109 13.15431641 15.17480469 13.68457031 C16.71875 15.1953125 16.71875 15.1953125 19 18 C18.70835601 21.34796363 17.35117593 23.02223075 15.02176666 25.34458351 C14.38293092 25.9887757 13.74409518 26.63296788 13.08590078 27.29668105 C12.37745221 27.99570898 11.66900363 28.69473691 10.93908691 29.41494751 C10.19164797 30.16424416 9.44420903 30.91354081 8.67412043 31.68554342 C6.15765839 34.20461353 3.6306044 36.71278529 1.10351562 39.22119141 C-0.69859287 41.02081768 -2.50003495 42.82111151 -4.30085754 44.62202454 C-8.18486323 48.50332064 -12.07339068 52.37999656 -15.96601868 56.25264359 C-21.59569697 61.85352781 -27.21660898 67.46314298 -32.83531564 73.07503121 C-41.95340488 82.18167292 -51.07780859 91.28195976 -60.20654297 100.37792969 C-69.07106154 109.21067261 -77.93385528 118.04513757 -86.79345703 126.8828125 C-87.3392491 127.42725099 -87.88504116 127.97168948 -88.44737238 128.53262611 C-94.40259141 134.47321199 -100.35711184 140.41449739 -106.31079865 146.35661888 C-106.83366303 146.87846488 -107.35652741 147.40031088 -107.89523616 147.93797039 C-109.98508719 150.02376997 -112.07493061 152.10957715 -114.16468436 154.19547419 C-120.28965912 160.30911015 -126.41681751 166.42053834 -132.5479027 172.52804671 C-136.84498405 176.80871761 -141.1397609 181.09169242 -145.43372154 185.375494 C-147.19977639 187.13646167 -148.96670646 188.89655207 -150.73455238 190.65572166 C-153.13833384 193.04789073 -155.53907938 195.44306536 -157.93908691 197.83901978 C-158.64753549 198.54250915 -159.35598407 199.24599853 -160.08590078 199.97080576 C-160.72473652 200.60978246 -161.36357226 201.24875915 -162.02176666 201.90709877 C-162.57675543 202.4600816 -163.1317442 203.01306443 -163.70355082 203.58280432 C-165.70746735 205.77335825 -166.02393775 207.14953357 -166.50187778 210.13511372 C-165.77670699 215.71954628 -162.91516808 218.02328991 -158.96995544 221.83818054 C-158.21379269 222.59679644 -157.45762994 223.35541234 -156.67855316 224.13701659 C-154.1358921 226.67949916 -151.56905776 229.1960901 -149.00170898 231.71362305 C-147.17591433 233.52925991 -145.35169175 235.34647882 -143.52893066 237.16516113 C-139.59968961 241.08102277 -135.65813247 244.98412179 -131.70818901 248.87909508 C-125.99586216 254.51239595 -120.30534384 260.16732505 -114.62039877 265.82824252 C-105.39439863 275.01453608 -96.15470176 284.18691564 -86.90454102 293.34887695 C-86.35101497 293.89713293 -85.79748893 294.44538891 -85.22718937 295.01025871 C-82.98409878 297.23194813 -80.740973 299.45360201 -78.49780213 301.67521037 C-72.31825511 307.7955597 -66.14105554 313.91827522 -59.96508789 320.04223633 C-59.41192831 320.59072983 -58.85876872 321.13922334 -58.28884672 321.70433786 C-49.07623373 330.83993052 -39.87350269 339.98542434 -30.67700821 349.13724166 C-25.0014473 354.78413577 -19.31656168 360.42133583 -13.61942697 366.04646514 C-9.26024406 370.35164956 -4.91346554 374.66915337 -0.57115936 378.9913559 C1.21641409 380.76632214 3.00832751 382.53692929 4.80475426 384.30293465 C7.24701123 386.70492887 9.67367082 389.12164354 12.09693909 391.54277039 C12.81967736 392.24616962 13.54241564 392.94956885 14.28705508 393.67428321 C14.92949221 394.32235869 15.57192934 394.97043417 16.23383427 395.63814831 C16.79620008 396.19482101 17.35856588 396.75149371 17.93797308 397.32503527 C19 399 19 399 18.77751487 401.0842002 C17.72273369 403.68318531 16.18581107 405.1516514 14.18359375 407.109375 C13.41982422 407.86347656 12.65605469 408.61757813 11.86914062 409.39453125 C11.06669922 410.17183594 10.26425781 410.94914062 9.4375 411.75 C8.22803711 412.93916016 8.22803711 412.93916016 6.99414062 414.15234375 C5.00266222 416.10847046 3.00452279 418.05725719 1 420 C-4.44210869 415.45715038 -9.50441461 410.64622927 -14.51721191 405.63668823 C-15.34877603 404.80950637 -16.18034015 403.98232451 -17.03710318 403.13007653 C-19.32813705 400.850035 -21.61696372 398.56780546 -23.90480232 396.28455853 C-26.37876984 393.81658545 -28.85553336 391.35142067 -31.33184814 388.88580322 C-37.29764603 382.94442246 -43.25859142 376.9981852 -49.21865678 371.05105466 C-50.90193136 369.3714966 -52.58533385 367.69206686 -54.26878166 366.01268244 C-64.72827901 355.57840088 -75.18619232 345.14253456 -85.63932037 334.70187187 C-88.05510035 332.28902138 -90.47089644 329.87618701 -92.88671875 327.46337891 C-93.78733073 326.56388601 -93.78733073 326.56388601 -94.70613688 325.64622153 C-104.4561295 315.90891223 -114.2163711 306.18194251 -123.98079377 296.45910572 C-134.00787983 286.47437551 -144.02557647 276.48030247 -154.0341239 266.47698891 C-159.65317609 260.8613555 -165.27635392 255.24999004 -170.91011047 249.64910507 C-175.7015488 244.88557952 -180.48450755 240.11374596 -185.25639158 235.3306285 C-187.69250859 232.88930456 -190.13256862 230.4522835 -192.58358002 228.02590561 C-195.2335683 225.39837461 -197.86789019 222.75609906 -200.49865723 220.10934448 C-201.28276679 219.33911701 -202.06687634 218.56888954 -202.8747468 217.77532184 C-203.92075375 216.71345698 -203.92075375 216.71345698 -204.98789215 215.6301403 C-205.90321205 214.7168552 -205.90321205 214.7168552 -206.83702326 213.78511989 C-208 212 -208 212 -207.89684629 210.00460267 C-206.81590268 207.58851145 -205.53821853 206.16682175 -203.66256714 204.29621696 C-202.58413638 203.20975154 -202.58413638 203.20975154 -201.48391914 202.10133731 C-200.28700856 200.9185577 -200.28700856 200.9185577 -199.06591797 199.71188354 C-198.22455732 198.86866519 -197.38319668 198.02544684 -196.51634026 197.15667641 C-194.17716505 194.81534761 -191.83143481 192.48095342 -189.48273754 190.14919972 C-186.95240015 187.63385335 -184.43072758 185.10984732 -181.90802002 182.58685303 C-177.53499366 178.21566564 -173.15655875 173.84995688 -168.7744751 169.48785019 C-162.43711108 163.17927366 -156.10850531 156.86197026 -149.78211093 150.54239537 C-139.51599339 140.28772664 -129.24355875 130.03941089 -118.96679688 119.79541016 C-108.98671857 109.84710671 -99.00836456 99.89708145 -89.03320312 89.94384766 C-88.41871016 89.33070827 -87.8042172 88.71756888 -87.17110324 88.08584951 C-80.46656641 81.39594522 -73.76272792 74.70534177 -67.0597229 68.01390266 C-66.47108306 67.42628121 -65.88244322 66.83865975 -65.27596581 66.23323158 C-62.92323861 63.8845558 -60.57051902 61.53587243 -58.21788907 59.18709923 C-51.32165819 52.30220857 -44.42324194 45.41952469 -37.52090216 38.54075815 C-33.19345194 34.2279856 -28.8675991 29.91361566 -24.54301119 25.59797297 C-22.04500833 23.1053038 -19.54614024 20.6135167 -17.04508209 18.12391281 C-14.33876129 15.42998045 -11.63624213 12.73225528 -8.93408203 10.03414917 C-8.13614164 9.24116798 -7.33820126 8.4481868 -6.51608086 7.63117588 C-5.79712702 6.91208109 -5.07817318 6.1929863 -4.33743286 5.45210075 C-3.40014689 4.51782369 -3.40014689 4.51782369 -2.44392586 3.56467235 C-0.90595122 2.04351056 -0.90595122 2.04351056 0 0 Z " fill="#008CD3" transform="translate(571,98)"/>
<path d="M0 0 C0.99 0.495 0.99 0.495 2 1 C1.32882062 1.66288324 1.32882062 1.66288324 0.64408207 2.33915806 C-10.24729884 13.09797663 -21.12196592 23.87338435 -31.97836208 34.66748905 C-37.22886767 39.88706946 -42.48485266 45.1008994 -47.75415039 50.30151367 C-52.34738838 54.83490881 -56.92994643 59.37878755 -61.50004441 63.93551344 C-63.91982764 66.34748118 -66.34459242 68.75390576 -68.78222466 71.14784431 C-71.50231476 73.82445179 -74.20311649 76.51917988 -76.90014648 79.21899414 C-78.11502495 80.40151512 -78.11502495 80.40151512 -79.35444641 81.60792542 C-83.69481702 85.99710843 -86.01330389 88.70882194 -86 95 C-86.33 95 -86.66 95 -87 95 C-87.84462988 88.24296093 -87.84462988 88.24296093 -85.70457172 85.09364223 C-84.84489434 84.1671945 -84.84489434 84.1671945 -83.96784973 83.22203064 C-83.32877497 82.52825254 -82.6897002 81.83447445 -82.03125954 81.11967278 C-78.74742849 77.69290867 -75.43788361 74.29878448 -72.0769043 70.94750977 C-70.93902214 69.80699913 -70.93902214 69.80699913 -69.77815247 68.64344788 C-67.29599968 66.15693025 -64.81025082 63.67404489 -62.32421875 61.19140625 C-60.59008924 59.45660258 -58.85610816 57.72165054 -57.12226868 55.98655701 C-53.50199884 52.36481784 -49.8799386 48.74488146 -46.2565918 45.1262207 C-41.60472925 40.48008063 -36.95740474 35.82943123 -32.31138897 31.17744541 C-28.73854219 27.60099416 -25.16332837 24.02691682 -21.58738136 20.4535656 C-19.87176859 18.73862109 -18.15690159 17.02293018 -16.44278526 15.30648994 C-14.05630318 12.91748048 -11.66666034 10.53167921 -9.27612305 8.14672852 C-8.56495331 7.43353455 -7.85378357 6.72034058 -7.12106323 5.98553467 C-6.47212601 5.33941727 -5.82318878 4.69329987 -5.15458679 4.02760315 C-4.30819153 3.18177343 -4.30819153 3.18177343 -3.44469738 2.31885624 C-2 1 -2 1 0 0 Z " fill="#2D2D2D" transform="translate(93,408)"/>
<path d="M0 0 C0 4.44071752 -2.89285572 6.46249234 -5.8125 9.5 C-6.63331055 10.37205078 -6.63331055 10.37205078 -7.47070312 11.26171875 C-9.94266092 13.88049585 -12.44668183 16.46040172 -15 19 C-15.99 18.67 -16.98 18.34 -18 18 C-12.06 12.06 -6.12 6.12 0 0 Z " fill="#ABABAB" transform="translate(537,577)"/>
<path d="M0 0 C0 4.44071752 -2.89285572 6.46249234 -5.8125 9.5 C-6.63331055 10.37205078 -6.63331055 10.37205078 -7.47070312 11.26171875 C-9.94266092 13.88049585 -12.44668183 16.46040172 -15 19 C-15.99 18.67 -16.98 18.34 -18 18 C-12.06 12.06 -6.12 6.12 0 0 Z " fill="#ABABAB" transform="translate(569,545)"/>
<path d="M0 0 C0 3.88939843 -1.19737718 4.7649445 -3.75 7.625 C-4.44609375 8.42164063 -5.1421875 9.21828125 -5.859375 10.0390625 C-8.01014951 12.00929755 -9.15547268 12.6284176 -12 13 C-8.19524578 8.43969176 -4.25030379 4.14910608 0 0 Z " fill="#A8A8A8" transform="translate(601,513)"/>
<path d="M0 0 C0.99 0.33 1.98 0.66 3 1 C1.35 2.65 -0.3 4.3 -2 6 C-2.99 5.67 -3.98 5.34 -5 5 C-3.35 3.35 -1.7 1.7 0 0 Z " fill="#BABABA" transform="translate(524,590)"/>
<path d="M0 0 C0.99 0.33 1.98 0.66 3 1 C1.35 2.65 -0.3 4.3 -2 6 C-2.99 5.67 -3.98 5.34 -5 5 C-3.35 3.35 -1.7 1.7 0 0 Z " fill="#BABABA" transform="translate(556,558)"/>
</svg>
