<?xml version="1.0" standalone="no"?>
<!DOCTYPE svg PUBLIC "-//W3C//DTD SVG 20010904//EN"
 "http://www.w3.org/TR/2001/REC-SVG-20010904/DTD/svg10.dtd">
<svg version="1.0" xmlns="http://www.w3.org/2000/svg"
 width="50.000000pt" height="50.000000pt" viewBox="0 0 50.000000 50.000000"
 preserveAspectRatio="xMidYMid meet">

<g transform="translate(0.000000,50.000000) scale(0.100000,-0.100000)"
fill="#000000" stroke="none">
<path d="M93 450 c-53 -32 -63 -64 -63 -200 0 -136 10 -168 63 -200 27 -17 51
-20 157 -20 140 0 175 12 205 69 21 42 21 260 0 302 -30 57 -65 69 -205 69
-106 0 -130 -3 -157 -20z m297 -15 c49 -25 60 -60 60 -185 0 -179 -21 -200
-200 -200 -179 0 -200 21 -200 200 0 179 20 199 198 200 82 0 121 -4 142 -15z"/>
<path d="M354 379 c-10 -17 13 -36 27 -22 12 12 4 33 -11 33 -5 0 -12 -5 -16
-11z"/>
<path d="M205 351 c-40 -17 -60 -51 -60 -102 0 -40 5 -54 28 -76 23 -23 36
-28 77 -28 41 0 54 5 77 28 23 23 28 36 28 78 0 45 -4 54 -33 80 -33 30 -75
37 -117 20z m106 -40 c39 -40 39 -82 0 -122 -20 -20 -39 -29 -61 -29 -43 0
-90 47 -90 90 0 43 47 90 90 90 22 0 41 -9 61 -29z"/>
</g>
</svg>
