<?xml version="1.0" encoding="UTF-8"?>
<svg version="1.1" xmlns="http://www.w3.org/2000/svg" width="2000" height="811">
<path d="M0 0 C0.68835938 0.00725098 1.37671875 0.01450195 2.0859375 0.02197266 C21.67205764 0.28270846 41.77187316 3.72946304 60 11 C60.64582031 11.25507324 61.29164063 11.51014648 61.95703125 11.77294922 C89.48720167 22.78106947 112.56516758 41.6650157 128 67 C128.5580835 67.90371338 128.5580835 67.90371338 129.12744141 68.82568359 C146.98898338 98.2717806 150.75436794 135.28848296 147.1875 168.9375 C147.11748779 169.62730957 147.04747559 170.31711914 146.9753418 171.02783203 C146.30728324 176.48286652 144.81341907 180.5597428 143 186 C61.49 186 -20.02 186 -104 186 C-101.68173217 212.81517453 -101.68173217 212.81517453 -95 238 C-94.56423987 239.26748644 -94.13068865 240.5357342 -93.69921875 241.8046875 C-85.51248445 264.92831135 -68.1001177 283.48827245 -46.2175293 294.24951172 C-39.06587127 297.59789233 -31.65677836 300.07436553 -24 302 C-23.30398682 302.18546387 -22.60797363 302.37092773 -21.89086914 302.56201172 C-13.74544574 304.48656007 -5.50689916 304.39785185 2.8125 304.375 C3.58867676 304.37412384 4.36485352 304.37324768 5.16455078 304.37234497 C35.37974627 304.25993262 63.71425964 296.0321189 87.12109375 276.203125 C87.74113281 275.80609375 88.36117188 275.4090625 89 275 C93.19128122 276.39709374 94.09881907 279.29751686 96.0625 283 C96.85901047 284.46054554 97.65724858 285.92014997 98.45703125 287.37890625 C98.87162598 288.1383252 99.2862207 288.89774414 99.71337891 289.68017578 C101.81868013 293.47610978 104.03493649 297.20491602 106.25 300.9375 C107.08637744 302.35651162 107.92233112 303.77577312 108.7578125 305.1953125 C110.08122092 307.44300617 111.40899023 309.68776384 112.7421875 311.9296875 C113.19851563 312.71601562 113.65484375 313.50234375 114.125 314.3125 C114.68574219 315.26576172 114.68574219 315.26576172 115.2578125 316.23828125 C116 318 116 318 116 322 C114.17784605 323.80679009 112.48940859 325.24632472 110.4375 326.75 C109.55674805 327.40524658 109.55674805 327.40524658 108.65820312 328.07373047 C91.58482005 340.4460738 71.2171832 347.40440796 50.9296875 352.50927734 C49.24894387 352.93669317 47.57667488 353.39716522 45.90625 353.86328125 C1.33882242 365.54426025 -49.98370687 361.34604021 -89.99267578 338.11303711 C-126.88780792 315.95805268 -153.46727804 279.87069112 -163.9765625 238.23828125 C-164.31928377 236.82590219 -164.66051982 235.41316159 -165 234 C-165.44472656 232.22689453 -165.44472656 232.22689453 -165.8984375 230.41796875 C-177.17801792 180.66496799 -170.29391541 120.76980595 -143.29931641 77.01025391 C-136.81333231 66.9753811 -129.27471756 57.60792766 -121 49 C-120.55720703 48.53142578 -120.11441406 48.06285156 -119.65820312 47.58007812 C-99.0983821 25.89214621 -73.85324991 11.42603751 -45 4 C-43.80503906 3.690625 -42.61007812 3.38125 -41.37890625 3.0625 C-27.77177176 -0.15008113 -13.92288063 -0.29006001 0 0 Z M-39 60 C-40.12535156 60.350625 -41.25070312 60.70125 -42.41015625 61.0625 C-56.45664722 65.88417986 -67.63243336 74.63243336 -78 85 C-78.73992187 85.73992187 -79.47984375 86.47984375 -80.2421875 87.2421875 C-94.58047687 102.47313302 -101.10023966 121.70167765 -104 142 C-41.96 142 20.08 142 84 142 C83.26003267 130.1605227 82.45841251 121.81222105 79 111 C78.73574219 110.13117188 78.47148438 109.26234375 78.19921875 108.3671875 C71.16890895 88.1758712 54.55063574 73.10795179 36.078125 63.4765625 C13.73474746 53.29242633 -15.79255488 52.1348235 -39 60 Z " fill="#000000" transform="translate(619,201)"/>
<path d="M0 0 C0.70962891 0.00725098 1.41925781 0.01450195 2.15039062 0.02197266 C39.80916053 0.53486911 76.7640519 13.8132698 104 40 C104.91652344 40.86496094 105.83304688 41.72992188 106.77734375 42.62109375 C112.98251809 48.62198251 118.22570929 54.81395418 123 62 C123.65613281 62.96164062 124.31226563 63.92328125 124.98828125 64.9140625 C135.03708529 80.32873278 140.49563258 97.04295527 144 115 C144.35191406 116.79630859 144.35191406 116.79630859 144.7109375 118.62890625 C148.5435713 141.70802717 146.55715364 163.21423181 142 186 C60.49 186.33 -21.02 186.66 -105 187 C-102.59982134 219.40241197 -98.50148156 245.52964791 -78 271 C-77.21625 272.051875 -76.4325 273.10375 -75.625 274.1875 C-64.30815215 286.31269412 -49.70452864 294.92294042 -34 300 C-33.35514648 300.21172852 -32.71029297 300.42345703 -32.04589844 300.64160156 C-0.48152996 310.40968225 36.95251974 304.44475592 65.75 289.625 C71.87210092 286.22802662 77.45381432 282.25917431 83 278 C84.33252121 276.99891808 85.66555802 275.9985201 87 275 C90.24088205 276.35075775 91.63231414 277.50578558 93.26171875 280.60546875 C93.65399658 281.33459473 94.04627441 282.0637207 94.45043945 282.81494141 C94.85866943 283.59788574 95.26689941 284.38083008 95.6875 285.1875 C96.5681784 286.82536805 97.4510298 288.46206934 98.3359375 290.09765625 C99.00061035 291.33153076 99.00061035 291.33153076 99.67871094 292.59033203 C101.63414191 296.1565005 103.70784985 299.6453832 105.8125 303.125 C106.1825415 303.74117188 106.55258301 304.35734375 106.93383789 304.9921875 C108.91944744 308.28069871 110.99048501 311.49454782 113.125 314.6875 C115 318 115 318 114.87109375 319.9765625 C110.03493163 331.21033818 88.96274415 338.8588524 78.3125 343.1875 C68.81389265 346.92826073 59.10967126 349.82591226 49.24023438 352.41113281 C47.38925758 352.8976799 45.54514392 353.41025562 43.703125 353.9296875 C9.29187061 362.95101635 -32.63261791 362.56937748 -66 350 C-66.68465332 349.74879395 -67.36930664 349.49758789 -68.07470703 349.23876953 C-87.84805915 341.89849128 -104.71533244 330.53630846 -120 316 C-120.51208008 315.51515137 -121.02416016 315.03030273 -121.55175781 314.53076172 C-155.09765373 282.56947586 -170.78238421 237.7538328 -172 192 C-172.12148601 186.65989772 -172.10710353 181.33879616 -172 176 C-171.99274902 175.31341309 -171.98549805 174.62682617 -171.97802734 173.91943359 C-171.31531043 125.00193913 -152.90622263 78.39483042 -118.14697266 43.84448242 C-85.32260483 12.03730097 -45.10422469 -0.82555105 0 0 Z M-69 75 C-69.825 75.6909375 -70.65 76.381875 -71.5 77.09375 C-83.67388451 87.63455244 -91.86286304 100.19608181 -98 115 C-98.28746094 115.69222656 -98.57492187 116.38445312 -98.87109375 117.09765625 C-101.7729477 124.90108734 -102.52181556 132.62362149 -104 141 C-41.96 141 20.08 141 84 141 C84.02862747 130.26017547 84.02862747 130.26017547 82.3125 120 C82.13243408 119.23163818 81.95236816 118.46327637 81.7668457 117.67163086 C76.53788407 96.33809283 62.8846372 77.74920071 44.375 65.8125 C9.53259879 46.21364932 -38.31913475 49.00648916 -69 75 Z " fill="#000000" transform="translate(1830,201)"/>
<path d="M0 0 C21.12 0 42.24 0 64 0 C62.5811519 6.38481647 61.02429604 12.13352931 58.75 18.1875 C58.41500488 19.09459717 58.08000977 20.00169434 57.73486328 20.9362793 C56.95552674 23.04532264 56.17358552 25.15340455 55.38964844 27.26074219 C52.84546132 34.10662586 50.32263777 40.96039811 47.79699707 47.81314087 C46.89975546 50.24539264 46.00040374 52.6768546 45.10058594 55.1081543 C42.0462696 63.37123245 39.04878978 71.65039183 36.13264465 79.96325684 C33.85540225 86.44293714 31.46943392 92.87993392 29.0625 99.3125 C26.10777375 107.24459541 23.20032802 115.18648726 20.4375 123.1875 C17.55224054 131.5423565 14.46206589 139.81157205 11.33569336 148.07885742 C8.96909302 154.35741844 6.68917573 160.65752826 4.5 167 C1.59458074 175.41756982 -1.51431753 183.74926917 -4.6640625 192.078125 C-7.0306958 198.35694804 -9.31074029 204.65728494 -11.5 211 C-14.04739421 218.38030097 -16.73850477 225.69717349 -19.5 233 C-22.18981732 240.1180588 -24.82613725 247.24575445 -27.3125 254.4375 C-30.63490167 264.04721261 -34.11130771 273.59903145 -37.59729004 283.15023804 C-41.13136101 292.83437686 -44.6192513 302.53309408 -48.0625 312.25 C-51.92176043 323.12623899 -55.97944223 333.91864638 -60.10131836 344.69702148 C-63.00645824 352.31493235 -65.78505268 359.96158759 -68.43603516 367.67114258 C-71.0566625 375.25844544 -73.88257425 382.76459513 -76.73266602 390.26831055 C-78.70915587 395.4881193 -80.59966573 400.71719554 -82.35668945 406.01464844 C-86.63005961 418.79189216 -92.96668108 429.90681514 -102 440 C-102.77601563 440.87011719 -103.55203125 441.74023438 -104.3515625 442.63671875 C-129.82955789 469.61568365 -168.46439708 484.43322371 -205 487 C-209.95 487 -214.9 487 -220 487 C-220 468.19 -220 449.38 -220 430 C-214.72 429.67 -209.44 429.34 -204 429 C-200.87553627 428.62266092 -197.83773431 428.23245905 -194.75 427.6875 C-193.61908936 427.48966919 -193.61908936 427.48966919 -192.46533203 427.2878418 C-172.65771167 423.64241028 -148.84744474 412.97504041 -137 396 C-124.97550281 375.42116252 -128.04465664 353.06018515 -133.56738281 330.703125 C-134.63990066 326.76129776 -135.90630817 322.90257912 -137.27294922 319.05175781 C-138.07861927 316.77813421 -138.8543138 314.4953288 -139.62890625 312.2109375 C-143.15845533 301.88040354 -147.00163838 291.694071 -151.00488281 281.53955078 C-152.92460479 276.64039768 -154.80260917 271.72513319 -156.6875 266.8125 C-160.69864152 256.36979368 -164.73124302 245.93554768 -168.77316284 235.50473022 C-171.72172862 227.89499908 -174.66264409 220.2824591 -177.58496094 212.66259766 C-183.28521319 197.80037247 -189.07479944 182.97349638 -194.86633301 168.14666748 C-195.20950562 167.26811096 -195.55267822 166.38955444 -195.90625 165.484375 C-196.24974487 164.60501282 -196.59323975 163.72565063 -196.94714355 162.81964111 C-204.74617674 142.85033872 -212.50845348 122.86665436 -220.25 102.875 C-220.6188179 101.9227655 -220.6188179 101.9227655 -220.99508667 100.95129395 C-223.58277547 94.26892215 -226.1622483 87.58350725 -228.72265625 80.890625 C-232.57616723 70.82103381 -236.45404872 60.77531245 -240.60546875 50.82446289 C-242.68641648 45.8177959 -244.62941875 40.76671303 -246.50732422 35.68066406 C-248.16489325 31.19985948 -249.86940227 26.73923396 -251.59765625 22.28515625 C-252.05487061 21.1055835 -252.51208496 19.92601074 -252.9831543 18.71069336 C-253.90259799 16.34200901 -254.82458874 13.97431159 -255.74926758 11.60766602 C-256.16974365 10.52283936 -256.59021973 9.4380127 -257.0234375 8.3203125 C-257.40419434 7.34336426 -257.78495117 6.36641602 -258.17724609 5.35986328 C-259 3 -259 3 -259 1 C-237.88 1 -216.76 1 -195 1 C-190.50646359 11.11045693 -190.50646359 11.11045693 -188.58984375 16.23828125 C-188.16276123 17.37426758 -187.73567871 18.51025391 -187.2956543 19.68066406 C-186.84746338 20.87916992 -186.39927246 22.07767578 -185.9375 23.3125 C-184.96597778 25.89805713 -183.99158348 28.48252058 -183.015625 31.06640625 C-182.76769699 31.72281097 -182.51976898 32.3792157 -182.264328 33.05551147 C-179.64080072 39.9809529 -176.91544335 46.86505632 -174.1875 53.75 C-170.99271744 61.8250366 -167.89251998 69.90834198 -165.06298828 78.1184082 C-162.54513792 85.40017689 -159.71930058 92.55760181 -156.89550781 99.72509766 C-155.40097128 103.52174199 -153.91885607 107.32319805 -152.4375 111.125 C-152.18105713 111.77976318 -151.92461426 112.43452637 -151.66040039 113.10913086 C-148.69584666 120.70986883 -145.85690309 128.35835059 -143 136 C-135.10998247 157.09575886 -127.20576488 178.18272354 -119.08349609 199.19042969 C-117.33431367 203.72616454 -115.60369473 208.26892456 -113.875 212.8125 C-113.55217041 213.66094482 -113.22934082 214.50938965 -112.89672852 215.38354492 C-112.25362973 217.07417548 -111.61064414 218.7648491 -110.96777344 220.45556641 C-109.98192973 223.04750967 -108.99506152 225.63906046 -108.0078125 228.23046875 C-107.67620117 229.10106934 -107.34458984 229.97166992 -107.00292969 230.86865234 C-106.3401705 232.60750787 -105.67677059 234.34611933 -105.01269531 236.08447266 C-103.25467786 240.68950652 -101.51195939 245.2996689 -99.7890625 249.91796875 C-99.42683594 250.88347656 -99.06460937 251.84898437 -98.69140625 252.84375 C-97.99427243 254.70277353 -97.30138116 256.563395 -96.61328125 258.42578125 C-96.30003906 259.25851562 -95.98679687 260.09125 -95.6640625 260.94921875 C-95.39029785 261.68487061 -95.1165332 262.42052246 -94.83447266 263.1784668 C-94.03978825 265.19244859 -94.03978825 265.19244859 -92 267 C-91.74943848 266.2378418 -91.49887695 265.47568359 -91.24072266 264.69042969 C-86.6446535 250.73755581 -81.99153581 236.81752378 -77 223 C-73.07483163 212.13243012 -69.37626069 201.20343388 -65.7565918 190.23071289 C-62.89381498 181.58848429 -59.89847144 173.00241807 -56.8125 164.4375 C-54.04494292 156.75399853 -51.30609771 149.06912828 -48.75 141.3125 C-45.31589428 130.89413012 -41.79127106 120.50734152 -38.25 110.125 C-37.94570068 109.23264648 -37.64140137 108.34029297 -37.32788086 107.42089844 C-33.38074506 95.85598879 -29.36697705 84.31799049 -25.25 72.8125 C-21.23193812 61.58048962 -17.39330181 50.30151815 -13.64770508 38.97680664 C-10.80240799 30.38026757 -7.89818227 21.80738448 -4.9375 13.25 C-4.55513184 12.14229248 -4.17276367 11.03458496 -3.77880859 9.89331055 C-3.252146 8.3760437 -3.252146 8.3760437 -2.71484375 6.828125 C-2.40667725 5.9402832 -2.09851074 5.05244141 -1.78100586 4.13769531 C-1 2 -1 2 0 0 Z " fill="#000000" transform="translate(1478,202)"/>
<path d="M0 0 C-1.97023004 6.0514328 -4.08915164 12.02620848 -6.35546875 17.97265625 C-6.66196854 18.78117538 -6.96846832 19.58969452 -7.28425598 20.42271423 C-8.25032003 22.96995239 -9.21886362 25.51623906 -10.1875 28.0625 C-10.8484725 29.80397376 -11.50928127 31.54550968 -12.16992188 33.28710938 C-13.7780585 37.52545951 -15.38841744 41.76295901 -17 46 C-20.35499831 45.46196231 -23.66525379 44.89048386 -26.9609375 44.0625 C-47.36616958 39.10406794 -66.89969348 37.98157763 -85.5 49.1875 C-102.79183202 60.63588534 -110.11476794 77.45907177 -115 97 C-115.66 105.91 -116.32 114.82 -117 124 C-93.24 124 -69.48 124 -45 124 C-45 143.8 -45 163.6 -45 184 C-68.1 184 -91.2 184 -115 184 C-115 282.34 -115 380.68 -115 482 C-135.79 482 -156.58 482 -178 482 C-178 383.66 -178 285.32 -178 184 C-194.5 184 -211 184 -228 184 C-228 164.2 -228 144.4 -228 124 C-211.5 124 -195 124 -178 124 C-178 119.71 -178 115.42 -178 111 C-177.65802612 107.19424528 -177.27207397 103.46497477 -176.75 99.6875 C-176.61432617 98.69476074 -176.47865234 97.70202148 -176.33886719 96.67919922 C-172.51730433 70.01021146 -162.16483046 47.69762953 -145 27 C-144.56413574 26.46479736 -144.12827148 25.92959473 -143.67919922 25.37817383 C-127.54319954 5.68518291 -101.25549928 -6.72380964 -76.23046875 -9.71875 C-52.25855166 -11.59748352 -22.00098903 -11.24945538 0 0 Z " fill="#000000" transform="translate(497,78)"/>
<path d="M0 0 C17.96896561 -0.32917286 35.07681508 2.40787023 52.375 7.12109375 C53.60404053 7.45367187 53.60404053 7.45367187 54.85791016 7.79296875 C70.17654937 12.00613036 86.24457219 16.78665114 100.375 24.12109375 C97.70600166 36.07588123 93.85540442 47.69558638 90.1875 59.37109375 C89.52638051 61.48427735 88.86557057 63.59755782 88.20507812 65.7109375 C86.59862157 70.84877926 84.98833906 75.98540928 83.375 81.12109375 C78.55182321 81.12109375 76.43411804 79.36961712 72.6875 76.68359375 C48.78222628 60.21924904 23.75422765 52.08578914 -5.51171875 55.5859375 C-16.23524595 57.77203653 -27.42997324 62.61030978 -34.625 71.12109375 C-39.99490147 79.80690938 -41.83232998 87.53896344 -39.9765625 97.65625 C-36.53647383 112.10756265 -29.5564709 122.73202978 -16.9206543 130.86083984 C-9.82323773 134.99668753 -2.61112152 138.62069054 4.875 141.99609375 C6.00212402 142.51075195 7.12924805 143.02541016 8.29052734 143.55566406 C14.35404255 146.31937124 20.43403542 149.04568141 26.51879883 151.76220703 C59.08772548 166.31775804 95.96964866 184.60126703 109.7722168 219.91503906 C119.29975738 245.75742593 119.76932614 276.76949006 108.375 302.12109375 C97.39577601 323.94532139 80.21980923 338.12742054 58.375 348.12109375 C57.53582031 348.51039063 56.69664062 348.8996875 55.83203125 349.30078125 C12.53505903 368.01203557 -42.54246948 361.01154135 -85.05224609 344.19140625 C-93.21719647 340.79463813 -101.09084651 336.74982699 -108.625 332.12109375 C-108.02782477 326.07334668 -106.27063907 320.81214176 -104.16796875 315.12890625 C-103.65161613 313.71084183 -103.65161613 313.71084183 -103.12483215 312.26412964 C-102.39756767 310.27109634 -101.66700722 308.27926301 -100.93334961 306.28857422 C-99.81962942 303.26544614 -98.71658023 300.23859263 -97.61523438 297.2109375 C-96.90427372 295.26669737 -96.19270482 293.32267952 -95.48046875 291.37890625 C-95.15427048 290.48487091 -94.8280722 289.59083557 -94.49198914 288.66970825 C-92.41578219 283.04904991 -90.12824664 277.56500046 -87.625 272.12109375 C-83.06383735 273.70834347 -79.32873435 276.13180813 -75.3125 278.74609375 C-67.94818832 283.44973985 -60.37513327 287.45789898 -52.4921875 291.21435547 C-51.21761735 291.8333086 -49.95216302 292.47130267 -48.6953125 293.12548828 C-43.80120038 295.6680569 -38.86980593 297.55450959 -33.625 299.24609375 C-32.86960937 299.49746094 -32.11421875 299.74882812 -31.3359375 300.0078125 C-29.10650303 300.73946539 -26.86928947 301.43651091 -24.625 302.12109375 C-23.38621094 302.50136719 -22.14742187 302.88164062 -20.87109375 303.2734375 C-3.87858756 307.33585933 17.4261593 305.47851351 32.5 296.30859375 C41.98704182 289.09697396 46.81196973 280.14088695 49.0546875 268.51953125 C50.95190719 254.31352042 47.39380377 242.42595662 38.796875 231.0625 C30.14849077 220.55889786 18.49060562 213.3818308 6.5 207.24609375 C5.50258789 206.72998535 4.50517578 206.21387695 3.47753906 205.68212891 C-3.68990563 202.01202441 -10.96152452 198.65452728 -18.33203125 195.41674805 C-27.33562079 191.43085896 -35.98735403 186.83859239 -44.625 182.12109375 C-45.28258301 181.76660156 -45.94016602 181.41210938 -46.61767578 181.046875 C-73.05099326 166.75933503 -94.47461561 146.39355362 -104 117.43359375 C-110.88074766 92.71161543 -108.27504148 67.39790338 -95.9375 44.93359375 C-81.42641058 22.16292862 -57.10097156 9.33635357 -31.48071289 3.33813477 C-20.94817354 1.031716 -10.76075408 0.35946485 0 0 Z " fill="#000000" transform="translate(891.625,200.87890625)"/>
<path d="M0 0 C0 31.35 0 62.7 0 95 C31.02 95 62.04 95 94 95 C94 113.15 94 131.3 94 150 C62.98 150 31.96 150 0 150 C0.11985628 182.46586482 0.11985628 182.46586482 0.2578125 214.93164062 C0.3181246 228.18007841 0.37648648 241.42850351 0.421875 254.67700195 C0.45494737 264.32784022 0.49486129 273.97862256 0.54279006 283.62939888 C0.56790441 288.73337758 0.58972906 293.83731991 0.60334396 298.94134331 C0.61630244 303.7585949 0.63850089 308.57572078 0.66738319 313.39290237 C0.67635249 315.14827287 0.68212382 316.90366354 0.68421364 318.65905571 C0.71501339 340.6267965 1.39564668 367.484541 17.31640625 384.48046875 C32.71139417 398.37524903 51.80695176 398.96931621 71.50244141 398.24707031 C83.10882219 397.42718637 94.28133053 393.8157354 104.78515625 388.91796875 C107 388 107 388 110 388 C111.6957772 393.50547481 112.78758496 398.98036527 113.7265625 404.66015625 C113.87910492 405.56825546 114.03164734 406.47635468 114.18881226 407.41197205 C114.50842797 409.32191864 114.8259899 411.23220994 115.14160156 413.14282227 C115.62424691 416.05795144 116.11640256 418.97136723 116.609375 421.88476562 C116.91984579 423.74730008 117.22976056 425.60992733 117.5390625 427.47265625 C117.68590485 428.33842789 117.83274719 429.20419952 117.98403931 430.09620667 C118.69579136 434.45022588 119.16824341 438.5694403 119 443 C83.82568804 455.64126216 29.54981432 460.757672 -5.35644531 444.91308594 C-16.41359857 439.54406823 -26.5625579 431.94470315 -35 423 C-35 422.34 -35 421.68 -35 421 C-35.66 421 -36.32 421 -37 421 C-54.31289314 401.38829948 -63.21661909 376.01907931 -63.12025452 349.98326111 C-63.12110894 349.12210884 -63.12196337 348.26095657 -63.12284368 347.37370878 C-63.12447932 344.51335897 -63.11900875 341.65306894 -63.11352539 338.79272461 C-63.11324308 336.73230999 -63.11340211 334.67189527 -63.1139679 332.61148071 C-63.11425415 327.03573634 -63.10838515 321.4600136 -63.10139394 315.88427424 C-63.09513183 310.05066332 -63.09455434 304.21705187 -63.09336853 298.38343811 C-63.09026364 287.34457606 -63.0820616 276.30572395 -63.07201904 265.26686627 C-63.06083176 252.69616045 -63.05534086 240.12545416 -63.05032361 227.5547446 C-63.03987828 201.7031563 -63.02154326 175.8515816 -63 150 C-76.2 150 -89.4 150 -103 150 C-103 131.85 -103 113.7 -103 95 C-89.8 95 -76.6 95 -63 95 C-63 71.24 -63 47.48 -63 23 C-33.23982558 11.55377907 -33.23982558 11.55377907 -20.61328125 6.76171875 C-17.70774443 5.65664445 -14.8091726 4.5365675 -11.91796875 3.39453125 C-10.74878906 2.93433594 -9.57960938 2.47414063 -8.375 2 C-7.39273437 1.608125 -6.41046875 1.21625 -5.3984375 0.8125 C-3 0 -3 0 0 0 Z " fill="#000000" transform="translate(1113,107)"/>
<path d="M0 0 C1.21473495 -0.00637985 2.42946991 -0.0127597 3.68101501 -0.01933289 C5.01724203 -0.02086145 6.35346958 -0.02197547 7.68969727 -0.02270508 C9.05111222 -0.02591606 10.41252682 -0.02928 11.77394104 -0.03279114 C14.63136597 -0.03878849 17.48876062 -0.04063043 20.34619141 -0.04003906 C24.01284602 -0.03993742 27.67930708 -0.05358891 31.34591579 -0.07081127 C34.15884803 -0.08191452 36.97173323 -0.08395879 39.78468513 -0.08342934 C41.136716 -0.08461202 42.48874798 -0.08904986 43.84075737 -0.0967617 C45.72975053 -0.10652706 47.61880013 -0.10242828 49.5078125 -0.09765625 C50.58401352 -0.09908127 51.66021454 -0.10050629 52.76902771 -0.10197449 C55.31860352 0.14526367 55.31860352 0.14526367 57.31860352 2.14526367 C57.5676592 4.88350409 57.5676592 4.88350409 57.56634998 8.45585155 C57.56884806 9.11381941 57.57134614 9.77178726 57.57391992 10.44969353 C57.57992249 12.67612736 57.57157209 14.902284 57.56343079 17.12870789 C57.56485197 18.73254155 57.56716335 20.33637463 57.57029313 21.94020587 C57.57641894 26.36477517 57.57013033 30.78925533 57.56198251 35.21381819 C57.55541408 39.97962585 57.56039756 44.7454218 57.56420898 49.51123047 C57.56944112 57.77744521 57.56792879 66.04363653 57.56243324 74.30985069 C57.55422957 87.38227128 57.56543978 100.45464118 57.57963562 113.52705383 C57.58423728 117.99857223 57.58868758 122.47009077 57.59307384 126.94160938 C57.59417199 128.05925941 57.59527013 129.17690943 57.59640155 130.32842764 C57.60858426 143.06074666 57.61612953 155.7930673 57.62207031 168.52539062 C57.62261837 169.68965534 57.62316643 170.85392006 57.6237311 172.05346552 C57.63217976 190.89636752 57.62885816 209.7392552 57.62291596 228.58215728 C57.617293 247.92926661 57.63086266 267.27630407 57.66046876 286.62339145 C57.6779906 298.55417766 57.67966545 310.48475585 57.66082361 322.41554103 C57.6491929 330.6017993 57.65570638 338.78791764 57.67629281 346.97415777 C57.68758257 351.69300137 57.69085745 356.41148403 57.67211723 361.13031197 C57.6550849 365.45938903 57.66145445 369.78780767 57.6856158 374.11684499 C57.69030552 375.67424041 57.68674024 377.23168999 57.67359034 378.78903695 C57.56451965 392.67816299 60.02538732 404.87082425 68.76782227 416.09448242 C70.31860352 418.14526367 70.31860352 418.14526367 71.27563477 420.28979492 C72.6111978 422.66579658 73.84983591 423.0691342 76.31860352 424.14526367 C77.70394327 425.08858841 79.07841347 426.04800655 80.44360352 427.02026367 C89.15677559 432.7915085 97.0292982 434.65541496 107.33789062 435.46264648 C109.33754547 435.62841657 111.32976442 435.87952271 113.31860352 436.14526367 C114.58991695 438.68789054 114.44561911 440.46732168 114.44799805 443.31347656 C114.45115021 444.39121841 114.45430237 445.46896027 114.45755005 446.57936096 C114.4545137 448.33094765 114.4545137 448.33094765 114.45141602 450.11791992 C114.4528511 451.90799721 114.4528511 451.90799721 114.45431519 453.73423767 C114.45499661 456.26032565 114.45314492 458.78641537 114.44897461 461.3125 C114.44362119 465.19494528 114.44892331 469.07727511 114.45532227 472.9597168 C114.45466157 475.40828476 114.45338059 477.85685266 114.45141602 480.30541992 C114.45344025 481.47516861 114.45546448 482.6449173 114.45755005 483.85011292 C114.45439789 484.92470261 114.45124573 485.9992923 114.44799805 487.10644531 C114.44720245 488.05749649 114.44640686 489.00854767 114.44558716 489.98841858 C114.31860352 492.14526367 114.31860352 492.14526367 113.31860352 493.14526367 C81.15097915 495.17034414 47.59190301 487.45851799 22.29516602 466.89916992 C2.7112267 449.52132653 -4.78161992 423.96925002 -6.50275254 398.68332005 C-7.16265149 385.61397295 -6.95228704 372.49448977 -6.92818677 359.41260672 C-6.92153566 354.5949131 -6.92657389 349.77722868 -6.93006897 344.95953369 C-6.93507904 335.55525263 -6.92951159 326.15100706 -6.92021867 316.74673042 C-6.90978537 305.79179684 -6.90990608 294.83687073 -6.91039125 283.88193312 C-6.91089042 264.34828324 -6.90176549 244.81464981 -6.88720703 225.28100586 C-6.87308372 206.3213674 -6.86603801 187.3617434 -6.86669922 168.40209961 C-6.86673917 167.23130595 -6.86677913 166.06051229 -6.8668203 164.85424003 C-6.86686065 163.6854692 -6.86690101 162.51669838 -6.86694258 161.31251025 C-6.86763136 139.70872441 -6.8617536 118.1049447 -6.85278937 96.50116085 C-6.84976941 88.85954598 -6.84870943 81.21793223 -6.84825706 73.57631683 C-6.84757677 64.28356969 -6.843137 54.99083291 -6.83392426 45.69809017 C-6.82929259 40.95464254 -6.82626584 36.21120822 -6.82751846 31.46775818 C-6.82860759 27.13360786 -6.8251317 22.79948706 -6.81786994 18.46534291 C-6.81604589 16.89059416 -6.81593661 15.31584238 -6.81763723 13.74109349 C-6.81968056 11.61499181 -6.81567739 9.48898898 -6.81003094 7.36289597 C-6.80932651 6.17778073 -6.80862209 4.9926655 -6.80789632 3.77163768 C-6.57798348 -1.00178441 -4.23214728 0.01500094 0 0 Z " fill="#000000" transform="translate(1563.681396484375,66.854736328125)"/>
<path d="M0 0 C1.21796265 -0.00315216 2.43592529 -0.00630432 3.6907959 -0.009552 C5.03019242 -0.00776222 6.36958862 -0.00571127 7.70898438 -0.00341797 C9.07279477 -0.00409106 10.43660505 -0.00506114 11.80041504 -0.00631714 C14.66203959 -0.00779385 17.52363297 -0.00564044 20.38525391 -0.00097656 C24.06092051 0.00472073 27.73651411 0.00144157 31.41217804 -0.00454903 C34.22935541 -0.00815538 37.04651535 -0.00701571 39.86369324 -0.00442123 C41.21933501 -0.00375217 42.57497834 -0.00457968 43.93061829 -0.00690079 C45.82223482 -0.00942848 47.71385687 -0.00489561 49.60546875 0 C51.2231012 0.00119339 51.2231012 0.00119339 52.87341309 0.00241089 C55.30273438 0.12939453 55.30273438 0.12939453 56.30273438 1.12939453 C56.40379499 3.13779828 56.43305807 5.14981799 56.43581295 7.16076088 C56.440054 8.48067516 56.44429504 9.80058944 56.44866461 11.16050112 C56.44835887 12.64464929 56.44796565 14.12879744 56.44749451 15.61294556 C56.45062556 17.17466808 56.45419974 18.73638978 56.45818192 20.29811037 C56.46791859 24.6108927 56.47143671 28.9236618 56.47402489 33.23645353 C56.4779076 37.88026284 56.4875459 42.52406031 56.49658203 47.16786194 C56.51154761 55.22400294 56.52308053 63.280143 56.53252983 71.33629227 C56.54638877 83.00060511 56.56757609 94.66489617 56.59095836 106.3291934 C56.62891689 125.2733308 56.66386752 144.21747217 56.69555664 163.16162109 C56.69745713 164.29654516 56.69935763 165.43146923 56.70131571 166.60078494 C56.72810814 182.6824107 56.75198934 198.76403948 56.77470071 214.84567146 C56.77629801 215.97635085 56.77789531 217.10703025 56.77954102 218.27197266 C56.78113448 219.4012742 56.78272795 220.53057574 56.7843697 221.69409855 C56.81117163 240.54847542 56.84558964 259.40282936 56.88619477 278.25718153 C56.91093031 289.88457653 56.92927909 301.51194687 56.93935037 313.13936399 C56.94676257 321.11862017 56.96132082 329.09784328 56.98141461 337.07707752 C56.99276462 341.67631057 57.00094278 346.27549038 57.00040627 350.87473869 C56.99997525 355.09449801 57.00880442 359.31413794 57.02465606 363.53386657 C57.02877483 365.0515847 57.02963213 366.56931641 57.02669197 368.08703728 C56.99682153 385.6811418 58.10649236 402.73422622 69.30273438 417.12939453 C69.30273438 417.78939453 69.30273438 418.44939453 69.30273438 419.12939453 C70.29273437 419.45939453 71.28273438 419.78939453 72.30273438 420.12939453 C73.32367188 421.21220703 73.32367188 421.21220703 74.36523438 422.31689453 C82.45320734 430.72156524 93.44277652 434.31289494 104.74023438 435.19189453 C107.62283106 435.42241097 110.43494277 435.72653099 113.30273438 436.12939453 C114.57404781 438.6720214 114.42974997 440.45145254 114.43212891 443.29760742 C114.43528107 444.37534927 114.43843323 445.45309113 114.44168091 446.56349182 C114.43864456 448.31507851 114.43864456 448.31507851 114.43554688 450.10205078 C114.43698196 451.89212807 114.43698196 451.89212807 114.43844604 453.71836853 C114.43912747 456.24445651 114.43727578 458.77054623 114.43310547 461.29663086 C114.42775205 465.17907614 114.43305417 469.06140597 114.43945312 472.94384766 C114.43879243 475.39241562 114.43751144 477.84098351 114.43554688 480.28955078 C114.43757111 481.45929947 114.43959534 482.62904816 114.44168091 483.83424377 C114.43852875 484.90883347 114.43537659 485.98342316 114.43212891 487.09057617 C114.43133331 488.04162735 114.43053772 488.99267853 114.42971802 489.97254944 C114.30273438 492.12939453 114.30273438 492.12939453 113.30273438 493.12939453 C79.85165089 495.23527388 46.46028811 486.88414998 20.55273438 465.31689453 C9.42985604 455.01037424 2.79700774 442.19085836 -1.94726562 428.00439453 C-2.19371826 427.29597412 -2.4401709 426.58755371 -2.6940918 425.85766602 C-7.03317736 412.12047808 -6.99516435 397.10327399 -6.94450378 382.82395935 C-6.94609712 381.16334067 -6.94856588 379.50272265 -6.95182019 377.8421064 C-6.95815934 373.33544488 -6.95222427 368.82887489 -6.94405591 364.32221949 C-6.93742108 359.44107784 -6.94243962 354.55994548 -6.94593811 349.67880249 C-6.95095517 340.14376664 -6.9453715 330.60876572 -6.93608781 321.07373422 C-6.92566654 309.96907974 -6.92577492 298.86443266 -6.92626039 287.75977422 C-6.92675988 267.95825033 -6.91762652 248.15674265 -6.90307617 228.35522461 C-6.8889585 209.13256536 -6.88190686 189.90992036 -6.88256836 170.68725586 C-6.88260832 169.50073905 -6.88264827 168.31422224 -6.88268944 167.09175038 C-6.88272979 165.90729209 -6.88277015 164.7228338 -6.88281173 163.50248283 C-6.88350054 141.60780426 -6.8776217 119.71313175 -6.86865851 97.81845514 C-6.86563811 90.0716776 -6.86457851 82.32490116 -6.86412621 74.57812309 C-6.86344587 65.15538109 -6.8590056 55.73264932 -6.8497934 46.30991166 C-6.84516163 41.49965114 -6.84213501 36.68940375 -6.8433876 31.87914085 C-6.84447673 27.48380704 -6.84100082 23.08850234 -6.83373908 18.69317461 C-6.83191499 17.09612905 -6.83180579 15.49908051 -6.83350637 13.90203481 C-6.83554965 11.74581907 -6.83154661 9.58970081 -6.82590008 7.43349361 C-6.82519565 6.23156335 -6.82449123 5.02963308 -6.82376546 3.79128069 C-6.59498375 -1.0228826 -4.27285345 0.00315225 0 0 Z " fill="#000000" transform="translate(7.697265625,66.87060546875)"/>
<path d="M0 0 C1.00474365 0.00902344 2.0094873 0.01804688 3.04467773 0.02734375 C20.56941913 0.43355104 35.54706868 7.52060419 48.1484375 19.6015625 C60.79995256 33.73233163 66.2544186 49.96257804 65.94140625 68.84765625 C65.28184331 78.1728615 63.19936297 87.21685647 58.6875 95.4375 C58.21699219 96.29730469 57.74648438 97.15710938 57.26171875 98.04296875 C49.63946331 110.94077091 39.77493461 118.83146158 26.6875 125.4375 C25.8728125 125.8809375 25.058125 126.324375 24.21875 126.78125 C15.42652504 131.24107426 5.32331636 130.6293636 -4.3125 130.4375 C-4.70888672 131.51064453 -4.70888672 131.51064453 -5.11328125 132.60546875 C-12.45917039 149.95325255 -27.16979769 162.32902167 -44.3125 169.4375 C-63.68743943 176.31461161 -81.09631145 175.12773484 -100.3125 168.4375 C-102.31227519 167.77015929 -104.31219057 167.10323766 -106.3125 166.4375 C-106.3125 165.7775 -106.3125 165.1175 -106.3125 164.4375 C-107.3025 164.4375 -108.2925 164.4375 -109.3125 164.4375 C-109.3125 163.7775 -109.3125 163.1175 -109.3125 162.4375 C-110.01761719 162.20933594 -110.72273438 161.98117188 -111.44921875 161.74609375 C-114.87560613 160.1801459 -117.39978773 158.04127254 -120.125 155.5 C-120.91112671 154.77018921 -120.91112671 154.77018921 -121.71313477 154.02563477 C-135.95636524 140.44223795 -143.48919295 123.07310135 -144.28857422 103.52880859 C-144.76246067 82.54780056 -137.814156 64.89058051 -123.48046875 49.64453125 C-122.76503906 48.91621094 -122.04960937 48.18789063 -121.3125 47.4375 C-120.77238281 46.88449219 -120.23226562 46.33148438 -119.67578125 45.76171875 C-105.66526077 32.66876384 -86.20750752 27.17665477 -67.45703125 27.265625 C-64.50816531 27.42680525 -61.82602531 27.9214183 -58.9375 28.5 C-56.54008544 28.88175394 -56.54008544 28.88175394 -54.3125 28.4375 C-52.19003408 26.5100966 -50.78628637 24.42963587 -49.1953125 22.046875 C-38.33994115 7.00250142 -17.88781901 -0.19418547 0 0 Z " fill="#ED4B9A" transform="translate(253.3125,-0.4375)"/>
<path d="M0 0 C36.3 0 72.6 0 110 0 C110 118.47 110 236.94 110 359 C89.21 359 68.42 359 47 359 C47 258.02 47 157.04 47 53 C31.49 53 15.98 53 0 53 C0 35.51 0 18.02 0 0 Z " fill="#000000" transform="translate(133,202)"/>
<path d="M0 0 C1.00474365 0.00902344 2.0094873 0.01804688 3.04467773 0.02734375 C20.56941913 0.43355104 35.54706868 7.52060419 48.1484375 19.6015625 C60.79995256 33.73233163 66.2544186 49.96257804 65.94140625 68.84765625 C65.28184331 78.1728615 63.19936297 87.21685647 58.6875 95.4375 C57.98173828 96.72720703 57.98173828 96.72720703 57.26171875 98.04296875 C49.63946331 110.94077091 39.77493461 118.83146158 26.6875 125.4375 C25.8728125 125.8809375 25.058125 126.324375 24.21875 126.78125 C15.42652504 131.24107426 5.32331636 130.6293636 -4.3125 130.4375 C-5.3125 128.4375 -5.3125 128.4375 -4.53515625 126.05859375 C-4.15230469 125.00800781 -3.76945312 123.95742187 -3.375 122.875 C2.24308634 103.88704269 -0.33119782 82.54387856 -9.625 65.2109375 C-19.76780008 48.54105775 -35.1175387 37.80992884 -53.3125 31.4375 C-53.3125 25.83196921 -50.99871038 23.48875258 -47.3125 19.4375 C-34.22995839 6.81056929 -18.19054507 -0.19747178 0 0 Z " fill="#F9A51A" transform="translate(253.3125,-0.4375)"/>
<path d="M0 0 C0.80243938 0.00250888 1.60487876 0.00501775 2.43163448 0.00760266 C3.70539525 0.00568553 3.70539525 0.00568553 5.00488856 0.00372967 C7.89334585 0.00063038 10.78175 0.00475203 13.67020559 0.00875333 C15.75369883 0.00801465 17.83719195 0.0068371 19.92068472 0.00525683 C25.70092482 0.00216614 31.48114754 0.00538074 37.26138636 0.00953496 C43.52899725 0.01295086 49.79660627 0.01060188 56.0642175 0.00895747 C67.06712459 0.00687733 78.07002543 0.00850582 89.07293176 0.01259568 C100.88449456 0.01696684 112.69605478 0.01916907 124.50761842 0.01869347 C125.25238488 0.01866478 125.99715134 0.01863609 126.76448648 0.01860653 C130.56174794 0.01845016 134.3590094 0.01825821 138.15627086 0.01805369 C165.67361494 0.01664449 193.19095673 0.02008293 220.70830011 0.0260711 C247.9680188 0.03198906 275.22773651 0.03584528 302.48745584 0.03692391 C303.33333864 0.03695832 304.17922144 0.03699274 305.05073706 0.03702819 C312.77631959 0.03734138 320.50190213 0.03762907 328.22748466 0.03788616 C347.43433808 0.03852565 366.64119147 0.03948502 385.84804487 0.04066136 C387.16015203 0.04074134 387.16015203 0.04074134 388.49876641 0.04082293 C431.07293403 0.04344586 473.64710101 0.049754 516.22126817 0.0563617 C530.99958848 0.05865332 545.77790879 0.06092866 560.55622911 0.0631366 C561.4727541 0.06327355 562.38927909 0.0634105 563.33357757 0.0635516 C605.9226967 0.06989306 648.51181594 0.07362042 691.10093542 0.0766714 C693.86509286 0.07686946 696.62925029 0.07706866 699.39340773 0.07726808 C717.71127942 0.07858783 736.0291511 0.07986249 754.34702279 0.08110694 C790.79654305 0.08358358 827.24606328 0.08632527 863.6955835 0.08924898 C865.43149243 0.08938822 867.16740136 0.08952728 868.90331028 0.08966615 C947.07228485 0.09592102 1025.24125894 0.10525952 1103.41023301 0.11593201 C1104.14233761 0.11603195 1104.8744422 0.11613188 1105.62873179 0.11623485 C1142.24527063 0.12123554 1178.86180946 0.12641208 1215.47834825 0.13180115 C1215.47834825 2.11180115 1215.47834825 4.09180115 1215.47834825 6.13180115 C812.54834825 6.13180115 409.61834825 6.13180115 -5.52165175 6.13180115 C-5.85165175 4.48180115 -6.18165175 2.83180115 -6.52165175 1.13180115 C-4.74501595 -0.64483464 -2.36636896 0.00772211 0 0 Z " fill="#000000" transform="translate(11.521651750663295,661.8681988453027)"/>
<path d="M0 0 C13.05644192 2.03379191 24.23131905 9.54394238 34 18 C34.67417969 18.56203125 35.34835938 19.1240625 36.04296875 19.703125 C46.49427146 29.17387071 51.5708631 41.68147723 55 55 C55.26719849 55.93126709 55.26719849 55.93126709 55.53979492 56.88134766 C58.54593547 70.72075755 56.43183269 86.72428691 52 100 C38.1621549 100.50291728 24.54995836 94.42355329 14.09375 85.52734375 C4.92155711 76.77092334 -1.9189763 67.02714392 -6 55 C-6.391875 53.948125 -6.78375 52.89625 -7.1875 51.8125 C-11.53884231 36.75016122 -10.3050444 18.88124881 -2.93554688 4.99414062 C-1.98094911 3.31559747 -0.9934917 1.65581951 0 0 Z " fill="#DA2128" transform="translate(197,30)"/>
<path d="M0 0 C1.39424653 0.00394052 1.39424653 0.00394052 2.81665966 0.00796065 C3.79875861 0.0068068 4.78085757 0.00565296 5.7927171 0.00446415 C9.12755482 0.00178922 12.46234553 0.0063268 15.79718086 0.01075396 C18.19455304 0.01031844 20.59192518 0.00944388 22.98929706 0.00816479 C28.22428179 0.00638713 33.45925629 0.00774454 38.69423935 0.011803 C46.47855094 0.01782115 54.26285533 0.01814038 62.04716882 0.01726101 C75.1396083 0.01594495 88.23204273 0.01929671 101.32448074 0.02527842 C114.29383499 0.03118875 127.26318714 0.03504301 140.23254272 0.03613123 C141.44064083 0.03623434 141.44064083 0.03623434 142.67314496 0.03633953 C146.7631021 0.03667785 150.85305923 0.03697924 154.94301637 0.03726641 C183.93712549 0.03936867 212.93123186 0.04611118 241.92533943 0.05556902 C270.09851637 0.06474849 298.27169255 0.07183454 326.44487068 0.07607684 C327.74674312 0.07627412 327.74674312 0.07627412 329.07491601 0.0764754 C337.79061174 0.07779388 346.50630748 0.0790697 355.22200322 0.08031426 C372.97800933 0.0828507 390.7340154 0.08567195 408.49002144 0.08866534 C409.7146991 0.08887127 409.7146991 0.08887127 410.96411772 0.08908137 C465.5160528 0.09828717 520.06798632 0.11415372 574.61991951 0.13100848 C574.61991951 2.11100848 574.61991951 4.09100848 574.61991951 6.13100848 C382.88991951 6.13100848 191.15991951 6.13100848 -6.38008049 6.13100848 C-6.71008049 4.48100848 -7.04008049 2.83100848 -7.38008049 1.13100848 C-5.45386414 -0.79520788 -2.56376283 0.00689951 0 0 Z " fill="#000000" transform="translate(1402.3800804913044,661.8689915239811)"/>
<path d="M0 0 C8.1485294 6.60535657 11.48947148 13.97907181 14 24 C15.18953461 35.83273906 14.01378047 47.03231978 6.875 56.953125 C0.17476266 64.69461544 -7.19075468 70.05895515 -17.53857422 71.3059082 C-20.17903564 71.43645853 -22.79404018 71.46777137 -25.4375 71.4375 C-26.82618286 71.42614014 -26.82618286 71.42614014 -28.24291992 71.41455078 C-34.83949205 71.2549516 -40.31481745 70.57131819 -46 67 C-46.71027344 66.57589844 -47.42054687 66.15179687 -48.15234375 65.71484375 C-57.59931039 59.39927387 -61.7261727 49.85816406 -64 39 C-65.31059994 28.70242903 -63.32559336 17.14469062 -57.25 8.5625 C-42.7485755 -8.41034521 -19.00185295 -13.06584653 0 0 Z M-43.3125 10.125 C-50.22564175 19.27191458 -51.09397407 28.90236612 -50 40 C-48.12893264 48.4142674 -43.2559907 55.00146109 -36.25 59.9375 C-29.16293486 62.25442514 -22.16408895 62.92150745 -15.1328125 60.13671875 C-7.53560327 56.08765669 -3.08186086 50.34539784 -0.4296875 42.26171875 C1.47845053 32.21797402 0.97246235 22.37600012 -4.22265625 13.46484375 C-8.09223671 8.09845855 -12.35732975 4.25333401 -19 3 C-28.43349698 2.13503753 -36.54351047 2.98464446 -43.3125 10.125 Z " fill="#000000" transform="translate(159,740)"/>
<path d="M0 0 C7.34573024 5.71513957 11.55204938 13.66118175 13.15234375 22.7578125 C14.48424954 36.25958669 13.03791656 48.27254424 4.53515625 59.23828125 C-2.03303593 66.18333691 -10.30960743 70.67065384 -19.89453125 71.09375 C-21.795469 71.11751172 -23.69657173 71.13024347 -25.59765625 71.1328125 C-26.53609375 71.15730469 -27.47453125 71.18179688 -28.44140625 71.20703125 C-39.29010879 71.25198444 -46.86370593 67.63395182 -54.6484375 60.19140625 C-63.8433978 50.01652123 -64.67028842 38.08828974 -64.04296875 24.99560547 C-63.17547011 15.05623974 -57.67255375 7.13303564 -50.53515625 0.5078125 C-36.30924225 -11.04287431 -14.72495843 -9.89965493 0 0 Z M-43.84765625 9.7578125 C-49.97814137 18.93571901 -51.85916033 27.78491381 -50.84765625 38.7578125 C-49.1689527 46.48789052 -45.78266427 52.50662062 -39.84765625 57.7578125 C-33.60044777 61.63108176 -26.8585041 62.86841926 -19.609375 61.26171875 C-13.11682276 59.33032086 -8.66786007 56.83848611 -5.18359375 50.94140625 C0.08740714 40.76162965 1.89344754 31.88925687 -1.34765625 20.6953125 C-3.82489551 13.9265179 -7.61412951 8.45895839 -13.7578125 4.5390625 C-23.61468391 0.16722631 -36.28907091 1.99494107 -43.84765625 9.7578125 Z " fill="#000000" transform="translate(1209.84765625,740.2421875)"/>
<path d="M0 0 C8.67142903 7.16735816 12.66174909 14.89747392 14 26 C14.92248067 36.87556164 13.36605778 48.09128327 6.7265625 57.00390625 C0.65167011 64.02714157 -7.48240737 70.30220912 -17.07788086 71.19287109 C-30.50206556 71.64597337 -41.33037086 71.44232914 -52.375 62.875 C-59.94954836 55.56871689 -63.41463573 46.37112784 -64 36 C-63.97082823 22.59556979 -60.93455064 12.32568755 -51.875 2.3125 C-38.28679089 -10.68103913 -14.88953352 -10.26416359 0 0 Z M-43.3125 10.125 C-49.51000221 18.21618344 -51.91878268 28.02961985 -50.59375 38.08203125 C-48.86161235 46.27875407 -45.53087475 51.46912525 -39.6875 57.3125 C-33.2145221 61.37692798 -27.23603042 62.62997466 -19.640625 61.6328125 C-12.50325078 59.92237667 -6.91968167 55.11225361 -3 49 C1.28026471 39.72051986 1.72948476 30.76367932 -1 21 C-3.96656285 12.97758295 -8.03123946 7.54215656 -15.6875 3.625 C-25.94952565 1.68876875 -35.79916971 2.19946705 -43.3125 10.125 Z " fill="#000000" transform="translate(1761,740)"/>
<path d="M0 0 C1.40798025 -0.01146932 2.81591876 -0.03184074 4.22363281 -0.06152344 C13.92999422 -0.26583184 22.63364141 -0.04776542 30.47558594 6.29516602 C31.00023437 6.95516602 31.52488281 7.61516602 32.06542969 8.29516602 C32.88720703 9.28516602 32.88720703 9.28516602 33.72558594 10.29516602 C36.77907563 15.07616517 36.57326885 20.80668478 36.00292969 26.29516602 C34.12314759 33.09590633 29.77886409 36.59408183 24.00292969 40.29516602 C24.4734375 40.76825195 24.94394531 41.24133789 25.42871094 41.72875977 C30.12959045 46.72161938 32.26401443 50.74495154 34.00292969 57.29516602 C34.42700009 58.71182944 34.85582748 60.12707322 35.28808594 61.54125977 C35.7561688 63.08403601 36.22361068 64.62700687 36.69042969 66.17016602 C36.91746582 66.92031982 37.14450195 67.67047363 37.37841797 68.44335938 C38.27677717 71.48833513 39.00292969 74.10270921 39.00292969 77.29516602 C34.71292969 77.29516602 30.42292969 77.29516602 26.00292969 77.29516602 C23.27519095 70.08614221 21.01762929 62.93366535 19.12792969 55.45922852 C17.90756523 52.02695348 16.51014371 49.92086841 14.00292969 47.29516602 C8.00896551 44.84865002 2.68028411 44.90219824 -3.99707031 44.29516602 C-3.99707031 55.18516602 -3.99707031 66.07516602 -3.99707031 77.29516602 C-8.28707031 77.29516602 -12.57707031 77.29516602 -16.99707031 77.29516602 C-16.99707031 52.21516602 -16.99707031 27.13516602 -16.99707031 1.29516602 C-11.36426817 -0.11303452 -5.77312585 0.03266549 0 0 Z M-3.99707031 10.29516602 C-3.99707031 18.54516602 -3.99707031 26.79516602 -3.99707031 35.29516602 C9.90504932 35.88657412 9.90504932 35.88657412 21.50292969 29.10766602 C23.63520223 25.10965499 23.76902356 21.73044633 23.00292969 17.29516602 C21.07412294 13.43755252 18.84302485 12.00034191 14.94042969 10.48266602 C8.82393061 8.68727574 2.08535078 8.26769232 -3.99707031 10.29516602 Z " fill="#000000" transform="translate(1390.9970703125,733.704833984375)"/>
<path d="M0 0 C1.40798025 -0.01146932 2.81591876 -0.03184074 4.22363281 -0.06152344 C13.92740119 -0.26577726 22.50518501 0.02207921 30.44042969 6.18969727 C34.81096783 11.55453283 37.39887771 16.16640357 36.87792969 23.29516602 C35.96184384 28.79168108 33.61056182 32.84437604 29.44042969 36.60766602 C27.63984626 37.85422378 25.82510215 39.08038437 24.00292969 40.29516602 C24.43863281 40.65223633 24.87433594 41.00930664 25.32324219 41.37719727 C34.48853709 50.16556445 37.0171175 65.18171166 39.00292969 77.29516602 C35.04292969 77.29516602 31.08292969 77.29516602 27.00292969 77.29516602 C23.96325256 71.62972524 21.953483 66.26445542 20.37792969 60.04516602 C19.97293592 58.47645597 19.56420437 56.90870518 19.15136719 55.34204102 C18.97782715 54.65980469 18.80428711 53.97756836 18.62548828 53.2746582 C17.93793654 51.0885133 17.22074744 49.24221283 16.00292969 47.29516602 C9.32805785 44.9466 3.23443106 44.89779113 -3.99707031 44.29516602 C-3.99707031 55.18516602 -3.99707031 66.07516602 -3.99707031 77.29516602 C-7.95707031 77.29516602 -11.91707031 77.29516602 -15.99707031 77.29516602 C-17.65872238 75.63351394 -17.11666757 73.63000572 -17.12149048 71.41114807 C-17.1178952 70.71343796 -17.11429993 70.01572784 -17.1105957 69.296875 C-17.11074173 68.56521118 -17.11088776 67.83354736 -17.11103821 67.07971191 C-17.11033898 64.65019818 -17.10254616 62.22076018 -17.09472656 59.79125977 C-17.09286242 58.11117088 -17.0914385 56.43108145 -17.09043884 54.75099182 C-17.08661339 50.32042958 -17.07678287 45.88989992 -17.06573486 41.45935059 C-17.05552134 36.94173625 -17.05094135 32.42411668 -17.04589844 27.90649414 C-17.03516062 19.03603709 -17.01808387 10.16560426 -16.99707031 1.29516602 C-11.42268718 -0.21592444 -5.73793466 0.03246637 0 0 Z M-3.99707031 10.29516602 C-3.99707031 18.54516602 -3.99707031 26.79516602 -3.99707031 35.29516602 C8.62867154 36.07572475 8.62867154 36.07572475 20.00292969 31.29516602 C23.43796926 27.59225639 23.58240445 24.66532795 23.40917969 19.77172852 C22.71131471 15.51743624 21.33349198 14.0706346 18.00292969 11.29516602 C10.86668588 8.63419375 3.37434515 8.45231215 -3.99707031 10.29516602 Z " fill="#000000" transform="translate(1831.9970703125,733.704833984375)"/>
<path d="M0 0 C1.4148158 -0.01145535 2.82959062 -0.03180393 4.24414062 -0.06152344 C14.96526586 -0.28653005 23.95375274 0.2604521 32.14086914 7.79516602 C36.77125814 12.58898051 36.4334675 17.92053449 36.34790039 24.32250977 C35.86510671 29.64723428 34.051065 32.60482166 30.03149414 36.04907227 C28.08616449 37.53566283 26.11882258 38.94311798 24.07836914 40.29516602 C24.52567383 40.68704102 24.97297852 41.07891602 25.43383789 41.48266602 C31.593684 47.57684213 33.35442747 54.32462961 35.55834961 62.44506836 C36.23413837 64.84935343 37.05232712 67.19334816 37.89086914 69.54516602 C39.07836914 73.29516602 39.07836914 73.29516602 39.07836914 77.29516602 C37.12033407 77.34905689 35.16188005 77.38790819 33.20336914 77.42016602 C31.56754883 77.4549707 31.56754883 77.4549707 29.89868164 77.49047852 C27.07836914 77.29516602 27.07836914 77.29516602 25.07836914 75.29516602 C24.34622645 73.27605376 23.68982203 71.22904255 23.07836914 69.17016602 C22.72774414 68.00098633 22.37711914 66.83180664 22.01586914 65.62719727 C21.28834745 63.04146392 20.64865305 60.47995364 20.07836914 57.85766602 C18.58880118 52.55108015 16.85046477 49.36580712 12.07836914 46.48266602 C6.84745215 44.78174836 6.84745215 44.78174836 -3.92163086 44.29516602 C-3.92163086 55.18516602 -3.92163086 66.07516602 -3.92163086 77.29516602 C-7.88163086 77.29516602 -11.84163086 77.29516602 -15.92163086 77.29516602 C-15.92163086 52.21516602 -15.92163086 27.13516602 -15.92163086 1.29516602 C-10.80394955 -0.41072776 -5.35672968 0.03013199 0 0 Z M-3.92163086 10.29516602 C-3.92163086 18.54516602 -3.92163086 26.79516602 -3.92163086 35.29516602 C9.14354205 36.06923138 9.14354205 36.06923138 20.39086914 30.35766602 C23.16262313 26.9699667 24.09905127 25.41200118 24.01586914 20.92016602 C22.86145499 16.45643131 21.47918932 14.40655469 18.07836914 11.29516602 C10.94212533 8.63419375 3.4497846 8.45231215 -3.92163086 10.29516602 Z " fill="#000000" transform="translate(337.921630859375,733.704833984375)"/>
<path d="M0 0 C4.29 0 8.58 0 13 0 C13.0093457 1.49257324 13.01869141 2.98514648 13.02832031 4.52294922 C13.06839185 10.09567381 13.13419877 15.66785628 13.20751953 21.24023438 C13.23562977 23.64543662 13.25689342 26.05072953 13.27099609 28.45605469 C13.29256308 31.92690114 13.33928587 35.39666873 13.390625 38.8671875 C13.39185364 39.93113739 13.39308228 40.99508728 13.39434814 42.09127808 C13.53185154 49.20613096 15.02249427 54.57089932 18 61 C18.33 61.99 18.66 62.98 19 64 C25.34978898 67.23261985 32.15565156 67.70516639 39 66 C43.76447033 63.7942267 45.90439608 61.17198799 48.16397095 56.45797729 C49.8013895 51.64386514 49.58284072 46.69704874 49.57421875 41.66015625 C49.58838333 40.49745712 49.60254791 39.334758 49.61714172 38.13682556 C49.65888811 34.44528798 49.67426278 30.75424002 49.6875 27.0625 C49.71652585 23.3459922 49.75098216 19.62960873 49.78999329 15.91319275 C49.81254374 13.6051141 49.82832455 11.29695789 49.83683777 8.98878479 C49.84387222 7.953582 49.85090668 6.91837921 49.8581543 5.85180664 C49.86163376 4.93661758 49.86511322 4.02142853 49.86869812 3.07850647 C50 1 50 1 51 0 C52.99799572 -0.09873816 54.99957158 -0.12971799 57 -0.125 C58.093125 -0.12757813 59.18625 -0.13015625 60.3125 -0.1328125 C63 0 63 0 64 1 C64.10314085 2.34824623 64.13849079 3.70178643 64.14526367 5.05395508 C64.15164352 5.91608109 64.15802338 6.77820709 64.16459656 7.66645813 C64.16570938 8.60797226 64.1668222 9.54948639 64.16796875 10.51953125 C64.17296135 11.97295174 64.17296135 11.97295174 64.17805481 13.45573425 C64.18313322 15.51792933 64.18546286 17.58013266 64.18530273 19.64233398 C64.18746434 22.76104897 64.20554036 25.87939575 64.22460938 28.99804688 C64.30980287 58.46329102 64.30980287 58.46329102 55.75 68.6875 C47.95737887 75.24038595 41.93105672 77.20861512 31.875 77.3125 C30.50601563 77.35600586 30.50601563 77.35600586 29.109375 77.40039062 C21.24794065 77.47318168 15.0226826 75.44065142 8.6875 70.75 C-0.124302 61.73327237 -0.31697313 49.17018853 -0.1953125 37.20703125 C-0.1924826 36.13498947 -0.18965271 35.06294769 -0.18673706 33.9584198 C-0.17565375 30.5763269 -0.15057195 27.19451116 -0.125 23.8125 C-0.11495487 21.50195698 -0.10583172 19.19140976 -0.09765625 16.88085938 C-0.07575336 11.25380149 -0.04130686 5.62694753 0 0 Z " fill="#000000" transform="translate(213,734)"/>
<path d="M0 0 C4.29 0 8.58 0 13 0 C13.01458252 1.53333984 13.02916504 3.06667969 13.04418945 4.64648438 C13.10233578 10.35700331 13.17956837 16.06713469 13.26245117 21.77734375 C13.29562363 24.24472749 13.32367926 26.71218571 13.34643555 29.1796875 C13.38012213 32.73469666 13.43244702 36.28902798 13.48828125 39.84375 C13.49467117 40.93989624 13.5010611 42.03604248 13.50764465 43.16540527 C13.65241797 50.77537721 14.39573408 56.76226399 19.3125 62.875 C23.98515649 66.56965862 27.65269565 67.19192707 33.5 66.875 C38.27797292 66.31021244 41.38409124 65.3447156 45 62 C48.23925029 56.75018056 49.09963023 51.8355738 49.20532227 45.75073242 C49.22526749 44.73005173 49.24521271 43.70937103 49.26576233 42.65776062 C49.28247482 41.5680043 49.29918732 40.47824799 49.31640625 39.35546875 C49.33718735 38.2305452 49.35796844 37.10562164 49.37937927 35.9466095 C49.44465792 32.3603006 49.50365899 28.77391973 49.5625 25.1875 C49.60570583 22.75324783 49.64932078 20.31900288 49.69335938 17.88476562 C49.80031714 11.92325047 49.90164568 5.96166305 50 0 C54.29 0 58.58 0 63 0 C63.09941734 7.34655888 63.17172842 14.69271981 63.21972656 22.03979492 C63.23975138 24.53530709 63.26697941 27.03077288 63.30175781 29.52612305 C63.3506777 33.12820941 63.37306113 36.72967146 63.390625 40.33203125 C63.41127014 41.43456741 63.43191528 42.53710358 63.45318604 43.67304993 C63.45611151 53.93965877 61.14000077 62.76870608 53.9375 70.34375 C44.82449787 78.13389698 33.81354131 77.70782875 22.45996094 77.22216797 C15.68849812 76.61061267 11.1035245 73.46075446 6.5625 68.625 C1.70151604 62.30846718 -0.13240638 55.47827315 -0.11352539 47.56713867 C-0.11344986 46.50641647 -0.11337433 45.44569427 -0.11329651 44.35282898 C-0.10813522 43.2193251 -0.10297394 42.08582123 -0.09765625 40.91796875 C-0.0962413 39.74865311 -0.09482635 38.57933746 -0.09336853 37.37458801 C-0.08777793 33.64553249 -0.07522709 29.91653733 -0.0625 26.1875 C-0.05748379 23.65690191 -0.05292109 21.12630288 -0.04882812 18.59570312 C-0.03781156 12.39711221 -0.02055332 6.19856634 0 0 Z " fill="#000000" transform="translate(1266,734)"/>
<path d="M0 0 C1.22244667 0.00333092 1.22244667 0.00333092 2.46958923 0.00672913 C3.39046829 0.00680466 4.31134735 0.00688019 5.26013184 0.00695801 C6.2611644 0.01211929 7.26219696 0.01728058 8.29356384 0.02259827 C9.31316696 0.02401321 10.33277008 0.02542816 11.38327026 0.02688599 C14.65417867 0.03250355 17.92501972 0.04505902 21.19590759 0.05775452 C23.40749515 0.06276725 25.61908377 0.06733055 27.83067322 0.07142639 C33.26494413 0.08247869 38.69916443 0.09975508 44.13340759 0.12025452 C44.13340759 3.42025452 44.13340759 6.72025452 44.13340759 10.12025452 C33.24340759 10.12025452 22.35340759 10.12025452 11.13340759 10.12025452 C11.13340759 17.38025452 11.13340759 24.64025452 11.13340759 32.12025452 C13.35961853 32.10865295 15.58582947 32.09705139 17.87950134 32.08509827 C20.02736773 32.07730729 22.17523257 32.07123077 24.32310486 32.06532288 C25.81985678 32.06028331 27.31660375 32.05345164 28.81333923 32.04481506 C30.96040566 32.03273293 33.10740721 32.0270226 35.25450134 32.02259827 C37.19474182 32.01474304 37.19474182 32.01474304 39.17417908 32.00672913 C42.13340759 32.12025452 42.13340759 32.12025452 43.13340759 33.12025452 C43.26622009 34.93275452 43.26622009 34.93275452 43.25840759 37.12025452 C43.26227478 38.20306702 43.26227478 38.20306702 43.26622009 39.30775452 C43.13340759 41.12025452 43.13340759 41.12025452 42.13340759 42.12025452 C39.84189342 42.20816427 37.54768235 42.2271949 35.25450134 42.21791077 C34.22450768 42.21578835 34.22450768 42.21578835 33.17370605 42.21362305 C30.97272958 42.20800931 28.7718535 42.19545459 26.57090759 42.18275452 C25.08197677 42.17774128 23.59304435 42.17317807 22.10411072 42.16908264 C18.44713954 42.15888473 14.79038642 42.13931231 11.13340759 42.12025452 C11.13340759 49.71025452 11.13340759 57.30025452 11.13340759 65.12025452 C22.68340759 65.45025452 34.23340759 65.78025452 46.13340759 66.12025452 C46.13340759 69.75025452 46.13340759 73.38025452 46.13340759 77.12025452 C39.31578335 77.14489699 32.4981848 77.16308696 25.68052673 77.17518616 C23.35923308 77.18022785 21.03794262 77.18706103 18.71665955 77.19569397 C15.38811965 77.20776676 12.05962157 77.2134843 8.73106384 77.21791077 C7.16389366 77.22565269 7.16389366 77.22565269 5.56506348 77.23355103 C4.60414291 77.23362656 3.64322235 77.23370209 2.65318298 77.23377991 C1.80268875 77.23600052 0.95219452 77.23822113 0.07592773 77.24050903 C-1.86659241 77.12025452 -1.86659241 77.12025452 -2.86659241 76.12025452 C-2.96682796 73.78311127 -3.00278443 71.47551127 -2.99598694 69.13783264 C-2.99773926 68.40777512 -2.99949158 67.67771759 -3.001297 66.92553711 C-3.0057154 64.50083573 -3.00277758 62.0762067 -2.99940491 59.65150452 C-3.00007795 57.97381069 -3.00104798 56.29611695 -3.00230408 54.61842346 C-3.00378103 51.09770278 -3.00162657 47.57700742 -2.9969635 44.05628967 C-2.99126621 39.53314956 -2.99454523 35.01006878 -3.00053596 30.48693085 C-3.00414164 27.02123056 -3.00300296 23.55554445 -3.00040817 20.08984375 C-2.99973892 18.42160027 -3.00056726 16.75335552 -3.00288773 15.08511353 C-3.00541436 12.75759958 -3.00157353 10.43018304 -2.99598694 8.10267639 C-2.99801117 7.40653732 -3.0000354 6.71039825 -3.00212097 5.99316406 C-2.9761951 0.19174025 -2.9761951 0.19174025 0 0 Z " fill="#000000" transform="translate(1909.8665924072266,733.8797454833984)"/>
<path d="M0 0 C15.51 0 31.02 0 47 0 C47 3.3 47 6.6 47 10 C35.78 10 24.56 10 13 10 C13 17.26 13 24.52 13 32 C23.56 32 34.12 32 45 32 C45 35.3 45 38.6 45 42 C34.44 42 23.88 42 13 42 C13 49.92 13 57.84 13 66 C24.88 66 36.76 66 49 66 C49 69.63 49 73.26 49 77 C42.18237576 77.02464247 35.3647772 77.04283244 28.54711914 77.05493164 C26.22582549 77.05997333 23.90453503 77.06680651 21.58325195 77.07543945 C18.25471205 77.08751225 14.92621398 77.09322979 11.59765625 77.09765625 C10.03048607 77.10539818 10.03048607 77.10539818 8.43165588 77.11329651 C7.47073532 77.11337204 6.50981476 77.11344757 5.51977539 77.11352539 C4.66928116 77.115746 3.81878693 77.11796661 2.94252014 77.12025452 C1 77 1 77 0 76 C-0.09494733 73.62699131 -0.12559319 71.28321297 -0.11352539 68.90991211 C-0.11367142 68.16849472 -0.11381744 67.42707733 -0.1139679 66.66319275 C-0.11326865 64.20121379 -0.10547574 61.73930957 -0.09765625 59.27734375 C-0.09579211 57.57483461 -0.09436819 55.87232493 -0.09336853 54.16981506 C-0.08954302 49.68006927 -0.07971247 45.19035562 -0.06866455 40.70062256 C-0.05665668 35.31836359 -0.05204835 29.9360939 -0.04621124 24.55382538 C-0.03650072 16.36919454 -0.01734441 8.18463428 0 0 Z " fill="#000000" transform="translate(833,734)"/>
<path d="M0 0 C-0.45822468 3.46941546 -0.89131683 6.67395049 -2 10 C-2.66644531 9.855625 -3.33289062 9.71125 -4.01953125 9.5625 C-13.36003964 7.68133467 -22.3995521 6.13887728 -31 11 C-32.57898053 14.15796107 -32.81928171 17.60670636 -32 21 C-28.11931091 26.02849853 -23.43562871 27.76797282 -17.6875 29.9375 C-9.7962802 32.92084198 -1.98918684 36.21808584 2.5 43.75 C4.80030313 49.13106625 5.0180067 54.60262852 3.33984375 60.203125 C0.44637172 66.76667194 -4.13128769 70.6774323 -10.55859375 73.640625 C-15.60572035 75.440344 -20.49951995 75.49226358 -25.8125 75.4375 C-27.2658374 75.43266602 -27.2658374 75.43266602 -28.74853516 75.42773438 C-35.89797411 75.28828004 -41.50893982 74.14718069 -48 71 C-47.34 67.7 -46.68 64.4 -46 61 C-42.94481539 61.43645494 -40.18464014 61.93056041 -37.2890625 63.01953125 C-33.47605441 64.15618806 -29.94042094 64.33101702 -26 64.3125 C-25.31421875 64.32861328 -24.6284375 64.34472656 -23.921875 64.36132812 C-19.20684998 64.36582719 -15.99302474 63.49338197 -12 61 C-9.75031433 57.57656528 -9.48355336 54.02878777 -10.16015625 49.984375 C-11.96067867 45.73011738 -16.01771553 43.94108559 -20 42 C-23.25897074 40.695609 -26.54359046 39.48404232 -29.83984375 38.27734375 C-36.71482966 35.49845575 -42.70816589 31.85798773 -46 25 C-47.45728457 18.5463112 -47.38011317 12.83159202 -43.80859375 7.08203125 C-34.2190898 -5.17267543 -13.38718368 -6.69359184 0 0 Z " fill="#000000" transform="translate(1565,736)"/>
<path d="M0 0 C-0.875 7.75 -0.875 7.75 -2 10 C-2.66644531 9.855625 -3.33289063 9.71125 -4.01953125 9.5625 C-11.89483474 7.97642489 -19.85576212 6.47317552 -27.5625 9.3125 C-30.21999539 10.93093168 -30.21999539 10.93093168 -32 14 C-32.53400232 18.8833713 -32.53400232 18.8833713 -30.5 23.1875 C-25.41507837 26.87406818 -19.81621685 29.07641935 -14 31.375 C-6.51498379 34.48430598 0.06334058 37.97282343 3.37109375 45.73046875 C5.05073889 51.79179687 5.13874618 57.74787541 2 63.3125 C-2.29489577 69.23775281 -7.91020592 73.21538364 -15 75 C-18.56584805 75.33062794 -22.10780745 75.37983334 -25.6875 75.375 C-27.15437256 75.37693359 -27.15437256 75.37693359 -28.65087891 75.37890625 C-35.85789708 75.27325614 -41.45401954 74.17380871 -48 71 C-47.34 68.03 -46.68 65.06 -46 62 C-42 61 -42 61 -38.8125 62.4375 C-34.34765469 64.27248377 -30.07284297 64.34313287 -25.3125 64.375 C-24.57555908 64.38845459 -23.83861816 64.40190918 -23.0793457 64.41577148 C-18.55533469 64.37935784 -15.52985173 63.8946094 -12 61 C-10.00700997 58.11400851 -9.73705104 55.95567622 -10.0625 52.5 C-10.11535156 51.7471875 -10.16820312 50.994375 -10.22265625 50.21875 C-11.38583494 46.89872237 -13.05171093 45.90569462 -16 44 C-19.01271937 42.6377332 -22.09718608 41.48549012 -25.1875 40.3125 C-33.13800405 37.14397469 -39.47835989 33.76200854 -45 27 C-46.8351179 21.49464631 -47.03921179 15.19716689 -45.234375 9.64453125 C-42.08165848 3.90525505 -36.91350819 0.56993063 -31 -2 C-21.4020655 -4.15305017 -8.99964353 -4.49982176 0 0 Z " fill="#000000" transform="translate(517,736)"/>
<path d="M0 0 C4.62 0 9.24 0 14 0 C18.997418 8.69920911 23.9277737 17.4287079 28.76123047 26.22021484 C29.16873535 26.95836426 29.57624023 27.69651367 29.99609375 28.45703125 C30.35888428 29.11678955 30.7216748 29.77654785 31.09545898 30.45629883 C31.90830297 31.99250382 31.90830297 31.99250382 33 33 C33.70346558 31.76697144 33.70346558 31.76697144 34.42114258 30.5090332 C36.17070338 27.44302692 37.92075815 24.37730368 39.67114258 21.31176758 C40.42687299 19.98798654 41.18240957 18.66409483 41.93774414 17.34008789 C43.02698959 15.43085675 44.11694443 13.5220321 45.20703125 11.61328125 C45.54152786 11.02662186 45.87602448 10.43996246 46.22065735 9.83552551 C47.14301733 8.22134113 48.07134855 6.61057308 49 5 C49.50402344 4.04867187 50.00804687 3.09734375 50.52734375 2.1171875 C51.01332031 1.41851563 51.49929688 0.71984375 52 0 C55.35546875 -0.48828125 55.35546875 -0.48828125 59.1875 -0.3125 C60.45980469 -0.26738281 61.73210937 -0.22226562 63.04296875 -0.17578125 C64.01878906 -0.11777344 64.99460937 -0.05976562 66 0 C65.37465342 3.05186147 64.36895024 5.32693523 62.7421875 7.9765625 C62.28489258 8.72478271 61.82759766 9.47300293 61.35644531 10.24389648 C60.86756836 11.02966064 60.37869141 11.8154248 59.875 12.625 C59.37581055 13.43461182 58.87662109 14.24422363 58.36230469 15.07836914 C55.75830202 19.27263136 53.10247568 23.40626154 50.25 27.4375 C49.75371094 28.14293945 49.25742188 28.84837891 48.74609375 29.57519531 C47.60110376 31.16524573 46.41360668 32.72570701 45.18212891 34.24975586 C38.94953255 42.64273071 39.01199146 50.10635839 39.125 60.125 C39.11826756 62.39479331 39.10201904 64.66433121 39.08297729 66.93405151 C39.07092747 68.96658152 39.08196244 70.99920963 39.09423828 73.03173828 C39 76 39 76 38 77 C35.98035801 77.07244053 33.95832876 77.08377188 31.9375 77.0625 C30.83277344 77.05347656 29.72804688 77.04445313 28.58984375 77.03515625 C27.73519531 77.02355469 26.88054687 77.01195312 26 77 C26.04302246 76.12077881 26.08604492 75.24155762 26.13037109 74.33569336 C26.90751928 53.98793813 25.4174148 40.11895901 12.72363281 23.31933594 C10.35632025 20.1338587 8.33070821 16.78759757 6.3125 13.375 C5.44044922 11.96347656 5.44044922 11.96347656 4.55078125 10.5234375 C4.03902344 9.69070313 3.52726562 8.85796875 3 8 C2.43667969 7.12601563 1.87335938 6.25203125 1.29296875 5.3515625 C0 3 0 3 0 0 Z " fill="#000000" transform="translate(1050,734)"/>
<path d="M0 0 C4.62 0 9.24 0 14 0 C15.42892578 2.5678125 15.42892578 2.5678125 16.88671875 5.1875 C17.82659484 6.87231492 18.76648633 8.55712128 19.70678711 10.24169922 C20.66726938 11.96372892 21.62564974 13.68693044 22.58398438 15.41015625 C25.91455129 21.37378915 29.31393122 27.24888695 33 33 C33.556875 32.00742187 34.11375 31.01484375 34.6875 29.9921875 C38.5867824 23.04742367 42.4939352 16.10723543 46.4375 9.1875 C47.39462891 7.50720703 47.39462891 7.50720703 48.37109375 5.79296875 C49.51903433 3.82467735 50.73606979 1.89589531 52 0 C55.2578125 -0.29296875 55.2578125 -0.29296875 59.125 -0.1875 C61.04699219 -0.14689453 61.04699219 -0.14689453 63.0078125 -0.10546875 C63.99523437 -0.07066406 64.98265625 -0.03585937 66 0 C65.37510621 4.10212538 63.12470629 7.18264876 60.875 10.5625 C60.04788733 11.8253311 59.22106719 13.08835384 58.39453125 14.3515625 C57.98541504 14.97321289 57.57629883 15.59486328 57.15478516 16.23535156 C55.01222981 19.50942979 52.93546466 22.82263609 50.90625 26.16796875 C49 29 49 29 46.34375 31.92578125 C36.20735661 43.63035311 38.11264391 57.58209709 38.95483398 72.1652832 C39 75 39 75 38 77 C34.04 77 30.08 77 26 77 C26.05349609 76.13648926 26.10699219 75.27297852 26.16210938 74.38330078 C27.25526028 52.18822347 24.45259195 38.91017284 10.98046875 20.71728516 C8.24719311 16.96711777 5.85593359 13.05626432 3.5 9.0625 C2.8090625 7.93972656 2.118125 6.81695313 1.40625 5.66015625 C0 3 0 3 0 0 Z " fill="#000000" transform="translate(647,734)"/>
<path d="M0 0 C20.79 0 41.58 0 63 0 C63 3.3 63 6.6 63 10 C62.67 10.33 62.34 10.66 62 11 C54.08 11 46.16 11 38 11 C38 32.78 38 54.56 38 77 C34.04 77 30.08 77 26 77 C25 76 25 76 24.87974548 73.41209412 C24.8830764 71.68334801 24.8830764 71.68334801 24.88647461 69.91967773 C24.88655014 68.61840439 24.88662567 67.31713104 24.88670349 65.97642517 C24.89181091 64.54548098 24.89702692 63.11453718 24.90234375 61.68359375 C24.90420797 60.2277074 24.90563185 58.77182043 24.90663147 57.31593323 C24.91045635 53.47720621 24.92028636 49.63851681 24.93133545 45.79980469 C24.94155022 41.88542184 24.94612923 37.97103294 24.95117188 34.05664062 C24.96190866 26.37107657 24.97898471 18.68554355 25 11 C23.91730835 11.00785522 23.91730835 11.00785522 22.81274414 11.01586914 C19.56267151 11.03657358 16.31261272 11.04963918 13.0625 11.0625 C11.35803711 11.07506836 11.35803711 11.07506836 9.61914062 11.08789062 C8.53955078 11.09111328 7.45996094 11.09433594 6.34765625 11.09765625 C4.84730835 11.10551147 4.84730835 11.10551147 3.31665039 11.11352539 C1 11 1 11 0 10 C0 6.7 0 3.4 0 0 Z " fill="#000000" transform="translate(1603,734)"/>
<path d="M0 0 C20.79 0 41.58 0 63 0 C63 3.3 63 6.6 63 10 C62 11 62 11 59.68334961 11.11352539 C58.68311768 11.10828857 57.68288574 11.10305176 56.65234375 11.09765625 C55.57275391 11.09443359 54.49316406 11.09121094 53.38085938 11.08789062 C52.24455078 11.07951172 51.10824219 11.07113281 49.9375 11.0625 C48.79732422 11.05798828 47.65714844 11.05347656 46.48242188 11.04882812 C43.65489649 11.03699747 40.8274736 11.0205141 38 11 C38.00222061 11.81210434 38.00444122 12.62420868 38.00672913 13.46092224 C38.02673071 21.09828948 38.04197345 28.7356441 38.05181217 36.37303066 C38.05704031 40.29988658 38.06413669 44.22672094 38.07543945 48.15356445 C38.0862708 51.94014257 38.09227736 55.7266999 38.09487724 59.51329231 C38.09673105 60.96104319 38.10035081 62.40879288 38.10573006 63.85653496 C38.11294367 65.87757135 38.11340808 67.89862848 38.11352539 69.91967773 C38.115746 71.07217514 38.11796661 72.22467255 38.12025452 73.41209412 C38 76 38 76 37 77 C33.04 77 29.08 77 25 77 C25 55.22 25 33.44 25 11 C17.08 11 9.16 11 1 11 C0.67 10.67 0.34 10.34 0 10 C0 6.7 0 3.4 0 0 Z " fill="#000000" transform="translate(553,734)"/>
<path d="M0 0 C2.03561106 -0.24463575 4.07981362 -0.41837613 6.125 -0.5625 C7.26195312 -0.66691406 8.39890625 -0.77132812 9.5703125 -0.87890625 C14.17536551 0.30120415 15.11431072 2.2899696 17.47753906 6.26196289 C17.97995117 7.16551514 18.48236328 8.06906738 19 9 C19.55139648 9.95060303 20.10279297 10.90120605 20.67089844 11.88061523 C22.41224372 14.90577103 24.11686439 17.94901598 25.8125 21 C26.96342586 23.06329156 28.11569413 25.12583507 29.26953125 27.1875 C29.77073486 28.08855469 30.27193848 28.98960937 30.78833008 29.91796875 C31.83465909 31.91981938 31.83465909 31.91981938 33 33 C33.29132812 32.46221924 33.58265625 31.92443848 33.8828125 31.37036133 C36.25291675 27.00420819 38.64530287 22.6523327 41.0703125 18.31640625 C42.82496174 15.17317357 44.49941963 12.02343036 46.0546875 8.77734375 C47.81247973 5.3711498 49.24751797 2.67152667 52 0 C56.52615739 -1.05052845 60.44970754 -0.81156131 65 0 C65.495 0.99 65.495 0.99 66 2 C65.25 3.60620117 65.25 3.60620117 64 5.54296875 C63.53182861 6.27402832 63.06365723 7.00508789 62.58129883 7.75830078 C61.79855591 8.96075439 61.79855591 8.96075439 61 10.1875 C60.46979248 11.03554199 59.93958496 11.88358398 59.39331055 12.75732422 C56.43660055 17.44187093 53.35393622 21.88672387 49.89453125 26.21484375 C37.28374215 42.59047168 36.90750916 57.09623949 38 77 C34.04 77 30.08 77 26 77 C26.04825928 76.12601563 26.09651855 75.25203125 26.14624023 74.3515625 C27.05849861 53.41214611 25.06942309 39.74693804 11.9296875 22.56396484 C9.07300044 18.76830093 6.56617798 14.78326217 4.0625 10.75 C3.64427979 10.1118335 3.22605957 9.47366699 2.79516602 8.81616211 C0.66006944 5.48790982 0 4.08306976 0 0 Z " fill="#000000" transform="translate(0,734)"/>
<path d="M0 0 C1.093125 0.00257813 2.18625 0.00515625 3.3125 0.0078125 C4.405625 0.00523437 5.49875 0.00265625 6.625 0 C9.3125 0.1328125 9.3125 0.1328125 10.3125 1.1328125 C10.40659479 3.15775481 10.42993122 5.1860112 10.42602539 7.21313477 C10.42594986 8.51440811 10.42587433 9.81568146 10.42579651 11.15638733 C10.42068909 12.58733152 10.41547308 14.01827532 10.41015625 15.44921875 C10.40829203 16.9051051 10.40686815 18.36099207 10.40586853 19.81687927 C10.40204365 23.65560629 10.39221364 27.49429569 10.38116455 31.33300781 C10.36915498 35.93517021 10.36454804 40.53734516 10.35871124 45.13951874 C10.34900185 52.13730952 10.32984513 59.1350177 10.3125 66.1328125 C21.8625 66.1328125 33.4125 66.1328125 45.3125 66.1328125 C45.3125 69.4328125 45.3125 72.7328125 45.3125 76.1328125 C43.72568011 77.71963239 42.10001654 77.26009786 39.90039062 77.26220703 C38.96271851 77.26535919 38.02504639 77.26851135 37.05895996 77.27175903 C36.03919067 77.2697348 35.01942139 77.26771057 33.96875 77.265625 C32.40960876 77.26706009 32.40960876 77.26706009 30.81896973 77.26852417 C28.61645446 77.26920613 26.41393721 77.26735077 24.21142578 77.26318359 C20.82710281 77.25783558 17.44291256 77.26312809 14.05859375 77.26953125 C11.92447887 77.26887047 9.79036408 77.26758931 7.65625 77.265625 C6.63648071 77.26764923 5.61671143 77.26967346 4.56604004 77.27175903 C3.15953186 77.26703079 3.15953186 77.26703079 1.72460938 77.26220703 C0.89489624 77.26141144 0.06518311 77.26061584 -0.78967285 77.25979614 C-2.6875 77.1328125 -2.6875 77.1328125 -3.6875 76.1328125 C-3.78773555 73.79566925 -3.82369203 71.48806925 -3.81689453 69.15039062 C-3.81864685 68.4203331 -3.82039917 67.69027557 -3.82220459 66.93809509 C-3.82662299 64.51339372 -3.82368517 62.08876468 -3.8203125 59.6640625 C-3.82098554 57.98636867 -3.82195557 56.30867494 -3.82321167 54.63098145 C-3.82468863 51.11026076 -3.82253416 47.5895654 -3.81787109 44.06884766 C-3.8121738 39.54570754 -3.81545282 35.02262676 -3.82144356 30.49948883 C-3.82504923 27.03378855 -3.82391056 23.56810243 -3.82131577 20.10240173 C-3.82064651 18.43415825 -3.82147486 16.76591351 -3.82379532 15.09767151 C-3.82632195 12.77015756 -3.82248113 10.44274102 -3.81689453 8.11523438 C-3.81891876 7.41909531 -3.82094299 6.72295624 -3.82302856 6.00572205 C-3.79702826 0.18764384 -3.79702826 0.18764384 0 0 Z " fill="#000000" transform="translate(754.6875,733.8671875)"/>
<path d="M0 0 C2.5 0.9375 2.5 0.9375 4 3 C4.6164086 6.80472892 5.04872883 10.48254671 2.78515625 13.7578125 C0.42308711 15.40144048 -1.14108199 15.40052605 -4 15.375 C-4.86625 15.38273438 -5.7325 15.39046875 -6.625 15.3984375 C-9 15 -9 15 -10.78515625 13.72265625 C-12.52351452 11.25765304 -12.47543714 8.88649463 -12.33984375 5.94140625 C-12 4 -12 4 -10.5 1.5 C-6.94950481 -0.63029712 -4.03685567 -0.64523513 0 0 Z " fill="#000000" transform="translate(1996,796)"/>
<path d="M0 0 C4.4297642 0.79102932 5.89210172 1.98974785 8.5 5.625 C9.1646293 9.24353729 8.96543651 10.85601795 7.0625 14 C3.27767083 16.40013557 -0.1387226 16.4092297 -4.5 15.625 C-7.0625 14 -7.0625 14 -8.5 11.625 C-9.0625 8.6875 -9.0625 8.6875 -8.5 5.625 C-5.89210172 1.98974785 -4.4297642 0.79102932 0 0 Z " fill="#000000" transform="translate(920.5,795.375)"/>
</svg>
